<svg width="113" height="113" viewBox="0 0 113 113" fill="none" xmlns="http://www.w3.org/2000/svg">
<circle cx="56.5" cy="56.5" r="56" stroke="white"/>
<g clip-path="url(#clip0_1_834)">
<path d="M91 82.3047C90.5431 83.6664 89.8206 84.7252 88.4677 85.0359C88.1641 85.0991 87.8556 85.1276 87.5469 85.1211C84.8977 85.1211 82.2473 85.1211 79.5958 85.1211C77.4708 85.1211 76.1622 83.6466 76.1551 81.2874C76.1551 80.6224 76.1551 79.9574 76.1551 79.239H37.9777C37.9777 79.9396 37.9777 80.6462 37.9777 81.3527C37.9653 83.6208 36.6336 85.1131 34.6131 85.1131C31.8978 85.1211 29.1826 85.1211 26.4673 85.1131C24.491 85.1131 23.1434 83.5931 23.1417 81.3745C23.1417 74.7463 23.0903 68.1141 23.1594 61.4898C23.1965 57.9273 24.5477 54.9447 26.9737 52.6231C28.0646 51.5781 29.2121 50.6123 30.3383 49.6049C30.4871 49.4723 30.6199 49.3159 30.8271 49.1022C29.6176 48.8271 28.502 48.5757 27.3863 48.3105C26.6019 48.1265 26.3345 47.7722 26.3238 46.8895C26.315 45.8267 26.3114 44.7619 26.3238 43.6991C26.3362 42.8203 26.7276 42.3711 27.5103 42.3631C29.1879 42.3486 30.866 42.3486 32.5448 42.3631C33.331 42.3631 33.7206 42.8144 33.7419 43.6892C33.7543 44.2315 33.7419 44.7738 33.7419 45.5239C34.0305 45.1142 34.2731 44.8688 34.4095 44.564C35.3427 42.5235 36.2848 40.4849 37.1631 38.4147C38.7126 34.7691 41.2626 32.873 44.8609 32.873C53.0339 32.8493 61.2057 32.8493 69.3763 32.873C72.895 32.8869 75.3972 34.773 76.9378 38.3098C77.7825 40.2632 78.6219 42.2206 79.4931 44.1602C79.7174 44.6234 80.027 45.0281 80.4016 45.3477C80.4016 44.7876 80.3892 44.2275 80.4016 43.6694C80.4228 42.8362 80.8141 42.3829 81.5579 42.377C83.2579 42.3612 84.9585 42.3612 86.6597 42.377C87.4016 42.377 87.8036 42.8381 87.816 43.6694C87.832 44.7817 87.816 45.896 87.816 47.0082C87.816 47.7346 87.4849 48.1641 86.858 48.3086C85.7158 48.5718 84.5701 48.8291 83.3287 49.1121C83.5058 49.31 83.6422 49.4545 83.7874 49.5851C84.8021 50.4995 85.8097 51.4238 86.8385 52.3183C89.0733 54.2619 90.3271 56.8506 90.876 59.9144C90.9082 60.0565 90.949 60.1961 90.9982 60.332L91 82.3047ZM25.2543 67.3402C25.2543 69.3016 25.2543 71.1798 25.2543 73.0561C25.2543 75.3143 26.6054 76.8046 28.6348 76.8165C30.8891 76.8165 33.1415 76.8343 35.394 76.8006C35.7299 76.7782 36.0497 76.6328 36.3043 76.387C36.9471 75.7477 37.5332 75.0352 38.1459 74.3564C38.7861 73.6184 39.5544 73.0344 40.4036 72.6399C41.2528 72.2455 42.1652 72.049 43.0848 72.0625H70.5203C71.4394 72.0486 72.3515 72.2443 73.2007 72.6377C74.0498 73.0311 74.8183 73.6139 75.4591 74.3504C76.086 75.0491 76.6987 75.7675 77.3415 76.4384C77.5432 76.6474 77.8023 76.7737 78.0764 76.7967C80.6182 76.8218 83.1564 76.825 85.691 76.8066C87.2653 76.7927 88.666 75.5993 88.7882 73.8636C88.9387 71.7102 88.8236 69.5312 88.8236 67.3659H87.8125C87.8125 67.7618 87.8125 68.1042 87.8125 68.4486C87.7824 70.8889 86.3267 72.8819 84.177 73.1728C82.8913 73.345 81.5738 73.2658 80.2811 73.2203C79.7109 73.2005 79.3762 72.7354 79.3479 72.0783C79.3423 71.7787 79.4402 71.4881 79.6212 71.267C79.8022 71.0458 80.0525 70.9111 80.3201 70.8908C80.4744 70.8776 80.6293 70.8743 80.784 70.881C81.5349 70.881 82.291 70.8176 83.0365 70.8928C84.857 71.0789 86.0629 69.6539 85.6131 67.3185C85.2306 67.3185 84.8375 67.3402 84.4444 67.3185C83.7602 67.2537 83.0714 67.343 82.4187 67.581C81.766 67.8189 81.1626 68.2007 80.6442 68.7039C80.5413 68.8087 80.4204 68.8888 80.2888 68.9393C80.1572 68.9899 80.0177 69.0097 79.879 68.9977C79.7403 68.9856 79.6053 68.9419 79.4822 68.8693C79.3592 68.7966 79.2508 68.6965 79.1637 68.5752C79.0718 68.4585 79.0017 68.3224 78.9577 68.1748C78.9137 68.0273 78.8966 67.8714 78.9075 67.7163C78.9184 67.5613 78.957 67.4103 79.0211 67.2722C79.0852 67.1342 79.1735 67.0119 79.2806 66.9127C80.475 65.6701 82.039 64.9664 83.6705 64.9375C85.3864 64.9098 87.1024 64.9375 88.7794 64.9375V60.0094C87.6301 61.2305 86.3675 61.3948 85.0305 61.3829C82.8223 61.3513 80.6034 61.3117 78.404 61.4007C77.253 61.4482 76.3286 61.1791 75.6362 60.1123C75.4328 59.8542 75.2113 59.6147 74.9739 59.3958C74.7384 59.7402 74.5242 60.0509 74.3117 60.3656C73.7804 61.1573 73.0721 61.4047 72.1867 61.3908C68.645 61.3374 65.1175 61.3908 61.5829 61.3552C60.9684 61.3552 60.5062 61.4957 60.0812 62.0321C59.4225 62.8633 58.6929 63.6154 57.9828 64.4071C57.3276 65.1275 56.8123 65.1236 56.1553 64.4071C55.4009 63.5739 54.6412 62.7446 53.9134 61.8817C53.7777 61.709 53.6087 61.573 53.4191 61.4839C53.2296 61.3947 53.0244 61.3548 52.8191 61.3671C49.0419 61.3889 45.2647 61.3988 41.4857 61.3532C41.0536 61.3532 40.5755 61.0623 40.2089 60.7694C39.7893 60.4329 39.4687 59.9401 39.0455 59.4433C38.6913 59.8629 38.3832 60.1816 38.1211 60.5418C37.6501 61.187 37.0746 61.4106 36.322 61.3968C33.9367 61.3493 31.5513 61.3572 29.166 61.3968C27.8096 61.4146 26.5186 61.2681 25.3534 60.0114V64.9375H25.9626C27.4873 64.9375 29.012 64.9118 30.5349 64.9375C32.0739 64.9764 33.5523 65.6156 34.7141 66.7445C35.3055 67.2987 35.3923 68.0171 34.9744 68.5594C34.5564 69.1017 33.9367 69.1116 33.3363 68.5436C31.8913 67.174 30.1967 67.2056 28.4382 67.3561V68.1477C28.4382 69.929 29.2652 70.8552 30.8395 70.8612C31.7461 70.8612 32.651 70.8612 33.5559 70.8612C34.328 70.8711 34.8061 71.3461 34.7955 72.0645C34.7849 72.7829 34.3245 73.2223 33.5896 73.2302C32.5519 73.2421 31.5124 73.252 30.4747 73.2302C29.3793 73.2029 28.3357 72.7039 27.5616 71.8373C26.7876 70.9707 26.3429 69.8034 26.3203 68.5792C26.3114 68.1675 26.3203 67.7558 26.3203 67.3264L25.2543 67.3402ZM57.0602 62.1291C57.8376 61.2404 58.5424 60.4606 59.2171 59.6492C59.3917 59.4289 59.6084 59.2552 59.8512 59.1411C60.0939 59.0271 60.3565 58.9755 60.6196 58.9901C64.1754 59.0099 67.7312 58.9683 71.2853 59.0218C72.1707 59.0356 72.8454 58.8397 73.4103 58.0322C74.6959 56.1837 76.4065 55.0634 78.3846 54.3232C80.0067 53.7196 81.5721 52.9141 83.242 52.162C83.01 51.9403 82.84 51.7978 82.6912 51.6316C81.5172 50.3293 80.3183 49.0587 79.1956 47.701C79.0564 47.5061 78.878 47.3508 78.6749 47.2476C78.4718 47.1444 78.2497 47.0963 78.0269 47.1072C71.3791 47.123 64.7326 47.1263 58.0873 47.1171C50.7324 47.1171 43.3787 47.1204 36.0262 47.127C35.7642 47.127 35.4135 47.1686 35.2524 47.3546C33.8587 48.9597 32.4987 50.6024 31.1175 52.2491C32.3163 52.7894 33.6356 53.4821 35.0133 53.9809C37.4624 54.8675 39.5945 56.2411 41.2006 58.5329C41.4769 58.9288 41.8186 59.002 42.2401 59C45.9287 58.9862 49.6156 59.0139 53.3043 58.9743C53.6431 58.9498 53.9823 59.0144 54.2947 59.1628C54.6072 59.3113 54.8841 59.5396 55.1034 59.8293C55.6896 60.5952 56.3412 61.2978 57.0602 62.1291ZM36.8939 44.7124H77.2141C76.4136 42.7649 75.684 40.8372 74.8411 38.9728C73.7627 36.5978 71.9724 35.2797 69.5853 35.2678C61.2358 35.2263 52.8881 35.2421 44.5404 35.2678C42.4384 35.2678 40.7066 36.3168 39.6582 38.29C38.5833 40.2989 37.8183 42.5215 36.8939 44.7085V44.7124ZM39.0544 76.7591H74.5507C73.3944 75.156 71.9883 74.4217 70.1945 74.4276C61.2943 74.4593 52.3946 74.4593 43.4956 74.4276C41.6787 74.4138 40.2373 75.1104 39.0544 76.7551V76.7591ZM35.8562 79.1875H35.0647C32.9025 79.1875 30.7403 79.1875 28.5781 79.1875C27.5809 79.203 26.5996 78.9068 25.7448 78.3325C25.6049 78.2375 25.4526 78.1682 25.256 78.0594C25.256 79.2469 25.2436 80.3651 25.256 81.4754C25.2684 82.2671 25.6686 82.7362 26.3663 82.7401C29.1454 82.756 31.925 82.756 34.7052 82.7401C35.4135 82.7401 35.8244 82.2849 35.8474 81.5091C35.8739 80.7708 35.8562 80.0346 35.8562 79.1875ZM78.2783 79.1875C78.2783 80.0465 78.2571 80.8084 78.2783 81.5625C78.3049 82.2631 78.7069 82.7282 79.3408 82.7342C82.1635 82.7527 84.9868 82.7527 87.8107 82.7342C88.3915 82.7342 88.8183 82.3522 88.8484 81.7129C88.9069 80.5254 88.8661 79.3162 88.8661 77.9525C87.4247 79.2073 85.8433 79.2053 84.2442 79.1816C82.2857 79.1657 80.3254 79.1875 78.2783 79.1875ZM37.4925 57.7749C37.4287 57.7106 37.3593 57.6535 37.2853 57.6047C34.629 56.4073 31.9728 55.206 29.3006 54.0422C29.1924 54.0076 29.0785 54.0015 28.9679 54.0245C28.8572 54.0476 28.7529 54.099 28.6631 54.1748C27.9489 54.9719 27.2738 55.8116 26.6408 56.6903C26.4744 56.9278 26.4779 57.4503 26.5842 57.767C26.8958 58.6972 27.6041 59 28.4418 59C30.7828 59 33.1256 58.9406 35.4631 59.0337C36.4264 59.0693 36.9701 58.6042 37.4925 57.7749ZM76.6722 57.6858L76.5872 57.9847C77.083 58.3231 77.5718 58.9347 78.0782 58.9545C80.6141 59.0534 83.1552 59.0119 85.6928 58.9842C86.0882 58.9777 86.4775 58.8743 86.8332 58.6814C87.6584 58.2242 87.9099 57.2148 87.3645 56.4212C86.8023 55.6336 86.1866 54.8959 85.5228 54.2144C85.3581 54.0402 84.949 54.0046 84.7135 54.0996C83.5519 54.5687 82.4114 55.0892 81.2657 55.6117C79.7275 56.3004 78.1963 56.9918 76.6722 57.6858ZM82.5389 46.8004C82.5972 46.8138 82.6566 46.8198 82.716 46.8182C83.3606 46.6777 84.0052 46.5293 84.6498 46.3907C85.7442 46.1572 85.7442 46.1612 85.6786 44.9202C85.6786 44.8806 85.6361 44.843 85.6131 44.8015H82.5389V46.8004ZM28.4665 46.1612L31.5726 46.842V44.8054H28.4665V46.1612Z" fill="white"/>
</g>
<defs>
<clipPath id="clip0_1_834">
<rect width="68" height="76" fill="white" transform="translate(23 21)"/>
</clipPath>
</defs>
</svg>
