<svg width="113" height="113" viewBox="0 0 113 113" fill="none" xmlns="http://www.w3.org/2000/svg">
<circle cx="56.5" cy="56.5" r="56" stroke="#fff"/>
<g clip-path="url(#clip0_2_3521)">
<path d="M90.9999 83.454C90.6912 84.2742 90.0703 84.5215 89.2335 84.5199C73.5285 84.5099 57.8239 84.5099 42.12 84.5199C40.8217 84.5199 40.3652 84.0617 40.3635 82.7618C40.3635 78.3424 40.3635 73.9236 40.3635 69.5054C40.3635 66.3926 41.846 64.2759 44.7845 63.2367C45.1829 63.0955 45.2045 62.8664 45.2012 62.5427C45.1863 61.2528 45.2693 59.9844 45.9001 58.8123C47.1403 56.5047 49.1175 55.4356 51.6808 55.4057C54.3752 55.3758 57.0697 55.3924 59.7658 55.4057C60.8797 55.4057 61.5488 56.0449 61.4093 56.9181C61.2914 57.6519 60.7801 58.0437 59.8654 58.0503C58.0309 58.062 56.1981 58.0503 54.3653 58.0503C53.2613 58.0503 52.1523 58.0221 51.0566 58.1167C49.2952 58.2678 48.0683 59.5594 47.9023 61.3026C47.8954 61.3466 47.891 61.3909 47.889 61.4354C47.889 61.9202 47.723 62.4829 47.9189 62.8681C48.0849 63.1869 48.6494 63.308 49.0461 63.499C51.0383 64.4602 52.2486 66.0041 52.6005 68.2005C52.6165 68.2875 52.6375 68.3734 52.6636 68.4578C52.6755 68.4921 52.6911 68.5249 52.7101 68.5558H78.6583C78.7596 68.154 78.8459 67.6593 79.007 67.1895C79.671 65.2471 80.9726 63.9173 82.9349 63.2931C83.4164 63.1387 83.5126 62.8996 83.5209 62.4431C83.5425 61.1449 83.3715 59.9313 82.3439 58.995C81.542 58.2645 80.5775 58.0454 79.5216 58.047C76.851 58.047 74.1787 58.047 71.5047 58.047C71.2179 58.0555 70.931 58.0355 70.6481 57.9872C70.3663 57.9203 70.1156 57.7597 69.9371 57.5317C69.7585 57.3037 69.6627 57.0218 69.6653 56.7322C69.6968 56.1279 69.9973 55.6763 70.5883 55.4937C70.8444 55.426 71.1088 55.3947 71.3736 55.4007C74.1344 55.4007 76.8969 55.3742 79.6561 55.4007C82.8469 55.4356 85.1794 57.187 85.9381 60.1571C86.1357 60.9357 86.0693 61.779 86.1672 62.5859C86.1938 62.7984 86.3332 63.1204 86.4993 63.1736C88.9762 63.9904 90.4222 65.6904 90.9286 68.2238C90.9432 68.2655 90.9633 68.3052 90.9883 68.3416L90.9999 83.454ZM78.655 76.4814H52.7317V81.8072H78.655V76.4814ZM50.0406 81.8354V77.2102C50.0406 74.5407 50.0605 71.8695 50.0406 69.1999C50.0107 66.8857 48.1463 65.3135 45.9101 65.6738C44.2267 65.9411 43.0264 67.4037 43.0214 69.2614C43.0081 73.3221 43.0214 77.3828 43.0214 81.4419C43.0214 81.5681 43.0447 81.6943 43.058 81.8404L50.0406 81.8354ZM81.3229 81.8122H88.3337C88.3337 77.4642 88.3603 73.1627 88.3022 68.8629C88.2939 68.2487 87.9834 67.568 87.6282 67.0368C86.7732 65.7701 85.2193 65.3168 83.7633 65.7784C83.0612 65.9933 82.4465 66.4278 82.0096 67.0179C81.5728 67.6081 81.3367 68.3229 81.3362 69.0572C81.3013 71.2635 81.3246 73.4715 81.3229 75.6779V81.8122ZM78.5604 73.772C78.9638 71.657 78.3944 71.1041 76.6778 71.1158C69.2818 71.1589 61.8841 71.134 54.4881 71.1357C54.2243 71.1295 53.9604 71.1467 53.6996 71.1871C53.2015 71.2768 52.8213 71.5823 52.7582 72.0853C52.6902 72.6365 52.7433 73.2042 52.7433 73.7737L78.5604 73.772Z" fill="#fff"/>
<path d="M90.9999 43.8113C90.6579 44.8787 90.2163 45.9296 89.1737 46.4492C88.4648 46.8012 87.6381 47.095 86.8611 47.0984C77.8697 47.1432 68.88 47.1349 59.8886 47.1216C57.4531 47.1216 55.7614 45.4233 55.7515 42.9862C55.7349 38.413 55.7349 33.8392 55.7515 29.265C55.7614 26.8229 57.4448 25.1279 59.8852 25.1229C68.8755 25.1096 77.8664 25.1096 86.8578 25.1229C88.8882 25.1229 90.2744 26.192 90.8754 28.1361C90.9129 28.2367 90.9567 28.3348 91.0065 28.4299L90.9999 43.8113ZM88.3436 35.977C88.3436 33.6793 88.3436 31.5842 88.3436 29.4907C88.3436 28.234 87.8788 27.7708 86.6187 27.7708H60.1193C58.8576 27.7708 58.3928 28.234 58.3928 29.4891C58.3928 33.9073 58.3928 38.325 58.3928 42.7421C58.3928 44.0038 58.8576 44.4737 60.1061 44.4737C64.6992 44.4737 69.2922 44.4737 73.8853 44.4737C74.0514 44.4737 74.2174 44.4504 74.3651 44.4388L65.6493 35.7346C65.5397 35.8359 65.377 35.9803 65.2243 36.133C64.4424 36.9116 63.6654 37.6986 62.8802 38.4739C62.4701 38.8773 61.9322 39.108 61.4392 38.8158C61.0689 38.5967 60.6672 38.1368 60.6224 37.745C60.5775 37.3532 60.8564 36.812 61.1569 36.4866C62.1746 35.3843 63.2637 34.3467 64.3245 33.2842C65.4302 32.1785 65.9963 32.1752 67.0887 33.2676C70.6978 36.8757 74.3087 40.4837 77.9212 44.0918C78.1279 44.3035 78.4022 44.4362 78.6965 44.467C81.4125 44.4936 84.1285 44.4919 86.8462 44.4786C87.8058 44.4786 88.3254 43.9524 88.3403 43.0028C88.3602 42.0067 88.3586 41.0106 88.3403 40.0145C88.3208 39.8046 88.2279 39.6082 88.078 39.46C86.2441 37.6084 84.4013 35.7656 82.5497 33.9317C82.3837 33.7656 82.2177 33.6162 82.0118 33.4336C80.8032 34.6522 79.6394 35.8292 78.4707 37.0013C78.3022 37.1755 78.1195 37.3354 77.9245 37.4794C77.6754 37.6653 77.3676 37.755 77.0576 37.7321C76.7477 37.7091 76.4564 37.575 76.2375 37.3544C76.0185 37.1338 75.8866 36.8416 75.8659 36.5315C75.8452 36.2214 75.9372 35.9142 76.1249 35.6665C76.2547 35.4888 76.3991 35.3222 76.5565 35.1685C77.3036 34.4148 78.0529 33.6644 78.8044 32.9173C82.4086 29.3281 81.6897 29.3214 85.279 32.8941C86.2519 33.8736 87.233 34.8597 88.3486 35.977H88.3436Z" fill="#fff"/>
<path d="M28.1682 93C27.2551 92.5335 27.0343 92.1284 27.1272 91.0941C27.2909 89.4758 28.0356 87.9716 29.2233 86.8602C30.411 85.7488 31.9613 85.1055 33.5869 85.0495C34.0036 85.0379 34.417 85.0495 34.9416 85.0495V84.1829C34.9416 72.3869 34.9416 60.5921 34.9416 48.7983C34.934 48.4685 34.9669 48.139 35.0395 47.8172C35.1158 47.5379 35.2842 47.2925 35.5175 47.121C35.7507 46.9495 36.0352 46.862 36.3245 46.8726C36.6137 46.8869 36.8899 46.9967 37.1101 47.1848C37.3303 47.3728 37.4819 47.6285 37.5414 47.9118C37.5852 48.218 37.6008 48.5275 37.5879 48.8365C37.5879 60.5871 37.5879 72.3377 37.5879 84.0883V84.9848C38.2719 85.0412 38.9293 85.0479 39.5701 85.1508C41.0065 85.3933 42.3245 86.0983 43.3236 87.1585C44.3226 88.2187 44.9482 89.5761 45.1051 91.0244C45.2229 92.0902 44.9972 92.5186 44.0708 92.9967L28.1682 93ZM42.1633 90.3205C41.7848 88.9044 40.362 87.7705 38.7649 87.7207C37.0035 87.6643 35.2371 87.6643 33.4757 87.7207C31.8769 87.7705 30.4492 88.9127 30.0823 90.3205H42.1633Z" fill="#fff"/>
<path d="M27.7714 44.0802C26.7122 44.0802 25.7244 44.0802 24.7366 44.0802C23.4201 44.0718 22.849 43.2501 23.3205 42.0216C25.3326 36.7744 27.3503 31.5277 29.3734 26.2816C29.7237 25.3735 30.0906 25.1195 31.0701 25.1195C34.5376 25.1195 38.0046 25.1195 41.471 25.1195C42.4671 25.1195 42.819 25.3619 43.1926 26.3314C45.2003 31.5332 47.2052 36.7351 49.2073 41.9369C49.717 43.265 49.1658 44.0685 47.7564 44.0685C42.2789 44.0685 36.8004 44.0685 31.3208 44.0685H30.416V44.7807C30.416 46.4592 30.4276 48.1376 30.416 49.816C30.4044 50.9432 29.4996 51.6206 28.5766 51.2072C27.954 50.9266 27.7647 50.3871 27.7664 49.7396C27.7764 47.8968 27.7714 46.0425 27.7714 44.0802ZM26.4084 41.3807H46.0896C46.084 41.2991 46.0718 41.218 46.053 41.1384C44.3929 36.8219 42.7327 32.5017 41.0726 28.1775C40.9248 27.789 40.6974 27.7675 40.3687 27.7675C37.6311 27.7675 34.8901 27.7807 32.1559 27.7675C31.7574 27.7675 31.5864 27.8969 31.4486 28.2655C30.4924 30.8022 29.5112 33.329 28.5367 35.8591C27.8345 37.6786 27.1306 39.5048 26.4084 41.3807Z" fill="#fff"/>
<path d="M65.6777 58.0221C65.3318 58.0217 65.0001 57.8851 64.7543 57.6418C64.5085 57.3984 64.3684 57.0681 64.3645 56.7222C64.3778 56.381 64.5231 56.0582 64.7698 55.8219C65.0164 55.5856 65.3451 55.4543 65.6866 55.4556C66.0282 55.4569 66.3559 55.5907 66.6007 55.8288C66.8456 56.067 66.9884 56.3908 66.9992 56.7322C66.9926 57.0777 66.8503 57.4068 66.603 57.6482C66.3557 57.8896 66.0233 58.024 65.6777 58.0221Z" fill="#fff"/>
<path d="M29.0729 53.3671C29.3329 53.3626 29.5884 53.4352 29.8071 53.5759C30.0258 53.7165 30.1979 53.9189 30.3016 54.1573C30.4053 54.3958 30.436 54.6596 30.3898 54.9155C30.3436 55.1714 30.2225 55.4079 30.0419 55.5949C29.8613 55.782 29.6293 55.9114 29.3752 55.9666C29.1211 56.0219 28.8563 56.0005 28.6144 55.9053C28.3724 55.8101 28.1641 55.6452 28.0158 55.4316C27.8675 55.218 27.7859 54.9652 27.7812 54.7052C27.7879 54.3603 27.9247 54.0307 28.1643 53.7825C28.4038 53.5343 28.7284 53.3859 29.0729 53.3671Z" fill="#fff"/>
</g>
<defs>
<clipPath id="clip0_2_3521">
<rect width="68" height="68" fill="white" transform="translate(23 25)"/>
</clipPath>
</defs>
</svg>
