<svg width="113" height="113" viewBox="0 0 113 113" fill="none" xmlns="http://www.w3.org/2000/svg">
<circle cx="56.5" cy="56.5" r="56" stroke="white"/>
<g clip-path="url(#clip0_2_3522)">
<path d="M90 76.7812C89.7132 77.4719 89.228 77.6659 88.5603 77.6659C66.8877 77.6501 45.2145 77.6461 23.5407 77.654C23.4539 77.654 23.3636 77.654 23.2768 77.654C22.5685 77.6223 22.1789 77.2384 22.1665 76.5714C22.1541 75.9044 22.5685 75.4354 23.2839 75.4334C25.586 75.4235 27.8881 75.4334 30.176 75.4334H30.9604V57.7911C30.5673 57.7001 30.1406 57.6149 29.7209 57.5041C27.5806 56.9504 25.6693 55.6081 24.2943 53.6933C22.9192 51.7785 22.1604 49.4024 22.1399 46.9472C22.1151 41.5797 22.1151 36.2116 22.1399 30.8428C22.1343 28.1143 23.0668 25.4877 24.7448 23.506C25.2973 22.8311 26.0234 22.9004 26.397 23.6366C26.6485 24.1334 26.5546 24.5866 26.2199 24.9943C24.6563 26.9062 24.0825 29.1763 24.1056 31.7354C24.1498 36.7585 24.1056 41.7796 24.125 46.8028C24.1157 48.773 24.7045 50.6886 25.7952 52.2365C26.8859 53.7845 28.414 54.8733 30.1299 55.3251C30.4009 55.4003 30.6807 55.4359 31.0153 55.5012C31.0153 53.2529 31.026 51.0797 30.9994 48.9066C30.9994 48.6849 30.7993 48.4316 30.6452 48.2515C29.5615 47.0165 28.46 45.7993 27.371 44.5703C26.799 43.927 26.7494 43.3471 27.2045 42.8365C27.6596 42.3259 28.205 42.3615 28.7575 42.9849C29.4659 43.7766 30.1618 44.6019 30.8613 45.4114L31.0224 45.3184V30.8843C31.0224 30.6627 31.0118 30.439 31.0224 30.2173C31.0702 29.5543 31.4474 29.1466 31.9999 29.1466C32.1333 29.1392 32.2666 29.1632 32.3911 29.217C32.5157 29.2708 32.6287 29.3533 32.7229 29.4592C32.817 29.565 32.8903 29.6917 32.9378 29.8312C32.9853 29.9707 33.006 30.1198 32.9987 30.2688C33.0128 32.4696 32.9987 34.6724 32.9987 36.8733C32.982 37.1752 33.0344 37.477 33.151 37.7501C33.9 36.8931 34.6385 36.0262 35.4017 35.1771C35.933 34.5834 36.5333 34.6111 36.9441 35.191C37.3124 35.7076 37.2752 36.2103 36.7812 36.7743C35.6496 38.0608 34.495 39.3235 33.3723 40.6198C33.1742 40.8343 33.049 41.1191 33.0182 41.4254C32.9969 46.0032 33.004 50.579 33.0075 55.1568C33.0185 55.2526 33.0362 55.3472 33.0607 55.4398C34.0254 55.3413 34.9566 54.9938 35.7807 54.4245C38.3324 52.7205 39.7137 50.1911 39.7438 46.8621C39.7916 41.5184 39.781 36.1746 39.7438 30.8309C39.7119 25.3862 35.1768 21.3111 30.3991 22.3462C30.0054 22.4368 29.5956 22.3561 29.2534 22.1206C29.0338 21.9227 28.9116 21.317 29.0196 21.0103C29.1033 20.8228 29.2221 20.6576 29.3678 20.5258C29.5135 20.394 29.6828 20.2987 29.8643 20.2463C33.5937 19.423 36.7706 20.5966 39.3152 23.7514C40.9444 25.7761 41.7307 28.2105 41.7377 30.9417C41.7466 34.999 41.7377 39.0563 41.7377 43.1136V43.8855C42.6816 43.7172 43.5883 43.4421 44.4967 43.4263C45.4051 43.4105 46.3224 43.6539 47.284 43.7905C48.2881 41.077 50.089 39.4145 52.8692 39.4858C55.5343 39.5551 57.2308 41.2294 58.2136 43.9785C60.1137 43.5827 61.7836 44.1428 63.2339 45.6766C65.3589 44.0438 67.661 43.5094 70.1401 44.3526C72.6193 45.1957 74.2467 47.0521 75.1994 49.7735C76.049 49.4168 76.9562 49.2634 77.8622 49.3234C78.7682 49.3834 79.6528 49.6554 80.4588 50.1218C80.4765 49.8052 80.5013 49.5914 80.5013 49.3777C80.5013 47.349 80.5013 45.3204 80.5013 43.2917C80.5013 42.8504 80.4198 42.603 80.0108 42.4011C78.4755 41.6431 77.6502 40.3012 77.6272 38.3992C77.6113 36.8713 77.6272 35.3414 77.6272 33.7541C77.3616 33.7363 77.119 33.7917 76.9437 33.6947C76.6125 33.5087 76.1734 33.2989 76.0583 32.9783C76.0063 32.777 75.9969 32.565 76.0307 32.3589C76.0645 32.1529 76.1406 31.9584 76.2531 31.7908C77.2252 30.6033 78.2364 29.4633 79.2989 28.3827C80.5845 27.0744 82.5289 27.1358 83.8198 28.4895C84.7867 29.5029 85.7022 30.5795 86.6443 31.6226C86.9843 31.9966 87.1862 32.4142 86.9985 32.9486C86.8108 33.483 86.4141 33.7205 85.8988 33.7106C85.7465 33.7106 85.596 33.7323 85.3675 33.7502C85.3675 35.0722 85.3268 36.3785 85.3764 37.6828C85.4596 39.9489 84.723 41.6213 82.7821 42.5139C82.7103 42.5577 82.6485 42.6194 82.6015 42.6942C82.5545 42.769 82.5236 42.855 82.5112 42.9454C82.4917 44.4238 82.4988 45.9022 82.4988 47.5153C83.0088 46.9967 83.4055 46.5494 83.8411 46.1536C85.1859 44.9325 86.8181 44.1722 88.5409 43.9646C89.1801 43.8795 89.6724 44.0517 89.9841 44.7108V45.453C89.6476 45.9596 89.1996 46.1496 88.6365 46.211C85.2719 46.5732 82.497 50.0189 82.4952 53.807V66.5588C82.9787 66.5588 83.3913 66.5588 83.8039 66.5588C84.7371 66.5727 85.0736 66.9546 85.0789 67.9996C85.0789 68.9793 85.0789 69.959 85.0789 70.9842H86.4123C87.3951 70.9842 87.7245 71.3563 87.7298 72.4468C87.7298 73.4245 87.7298 74.4003 87.7298 75.3641C89.5697 75.5521 89.5697 75.5521 89.9841 76.1795L90 76.7812ZM80.4535 66.5667C80.4821 66.4507 80.5022 66.3322 80.5137 66.2124C80.5137 61.9097 80.5261 57.6051 80.5031 53.3023C80.4886 53.1508 80.4467 53.004 80.3801 52.871C80.3134 52.738 80.2233 52.6215 80.1152 52.5285C78.5622 51.2777 76.9384 51.2104 75.272 52.2593C74.3866 52.8194 73.7509 52.5384 73.549 51.4479C73.3584 50.3067 72.8946 49.2446 72.207 48.3746C71.5194 47.5045 70.6336 46.8591 69.6439 46.5068C68.6543 46.1545 67.5976 46.1087 66.5865 46.3741C65.5753 46.6395 64.6474 47.2062 63.9015 48.014C63.3047 48.6652 62.7487 48.5523 62.2104 47.8319C61.9195 47.4006 61.5748 47.018 61.1868 46.6959C60.1739 45.9537 59.0901 45.9042 57.9657 46.4426C57.1458 46.8384 56.5915 46.4544 56.441 45.4747C56.4126 45.2768 56.3808 45.0789 56.34 44.8929C56.2262 44.338 56.0108 43.8155 55.7074 43.3582C55.4041 42.901 55.0193 42.5188 54.5773 42.2359C54.1354 41.9529 53.6458 41.7753 53.1394 41.7141C52.633 41.653 52.1208 41.7097 51.6349 41.8806C50.174 42.409 49.3647 43.5807 49.0531 45.2452C48.768 46.7711 48.3536 46.9888 47.1512 46.3198C45.5574 45.4292 43.9318 45.4134 42.292 46.209C42.1176 46.2708 41.9673 46.3973 41.8658 46.5675C41.7644 46.7377 41.718 46.9415 41.7342 47.1452C41.6772 49.4459 40.9736 51.6682 39.7232 53.497C38.4728 55.3257 36.739 56.6682 34.7677 57.3339C34.2011 57.5318 33.6167 57.6446 33.0536 57.7931V75.38H43.5369V72.1974C42.4319 72.1974 41.3747 72.1974 40.3175 72.1974C39.4658 72.1974 39.1187 71.8016 39.1116 70.8417C39.1033 69.5315 39.1033 68.2206 39.1116 66.9091C39.1116 65.8621 39.4516 65.4881 40.3955 65.4861C42.8911 65.4861 45.3868 65.4861 47.8825 65.4861H48.5997V63.1428C46.8625 63.1428 45.1661 63.1428 43.4643 63.1428C42.439 63.1428 42.1415 62.8004 42.1397 61.6307C42.1397 59.7505 42.1397 57.8709 42.1397 55.992C42.1397 54.5888 42.3841 54.3177 43.6556 54.3177H63.8041C65.4828 54.3177 67.1687 54.3177 68.8404 54.3177C69.6266 54.3177 69.979 54.7135 69.9825 55.5843C69.9932 57.6862 69.9932 59.7881 69.9825 61.8899C69.9825 62.7212 69.6195 63.117 68.8846 63.1329C68.2011 63.1487 67.5158 63.1329 66.8304 63.1329H63.5314V65.4722H64.2875C66.7844 65.4722 69.2801 65.4722 71.7746 65.4722C72.6707 65.4722 73.0142 65.8681 73.0142 66.8577C73.0225 68.1692 73.0225 69.4801 73.0142 70.7903C73.0142 71.7957 72.66 72.1757 71.7746 72.1757C70.7228 72.1757 69.6691 72.1757 68.5871 72.1757V75.3958H75.2862C75.2862 74.3231 75.2756 73.2899 75.2862 72.2588C75.2986 71.4355 75.6598 71.0317 76.3876 71.006C76.887 70.9902 77.3882 71.006 77.861 71.006C77.8882 70.9331 77.9096 70.8576 77.9247 70.7804C77.9247 69.8911 77.9247 69.0011 77.9247 68.1105C77.9247 66.923 78.2435 66.5845 79.3201 66.5806L80.4535 66.5667ZM45.5999 75.376H66.5046V72.1955C65.4651 72.1955 64.4752 72.1955 63.4854 72.1955C62.9045 72.1955 62.5893 71.8333 62.5521 71.1881C62.5361 71.0469 62.5458 70.9036 62.5805 70.7667C62.6152 70.6298 62.6742 70.5021 62.754 70.3912C62.8339 70.2804 62.9329 70.1887 63.0451 70.1215C63.1574 70.0544 63.2806 70.0133 63.4074 70.0006C63.6051 69.9781 63.8039 69.9715 64.0024 69.9808H70.296C70.528 69.9808 70.7617 69.959 70.9813 69.9471V67.7701H41.1427V69.9828H57.6115C57.8762 69.9653 58.1418 69.9819 58.4031 70.0322C58.9343 70.1708 59.1681 70.5904 59.1256 71.1861C59.0831 71.7818 58.8086 72.1499 58.2561 72.1994C58.0595 72.2172 57.8594 72.1994 57.6611 72.1994H45.5999V75.376ZM44.1638 60.8628H67.9602V56.5937H44.1638V60.8628ZM61.4701 63.2002H50.6875V65.4366H61.4737L61.4701 63.2002ZM83.3647 33.7759H79.646C79.646 35.4146 79.6176 36.994 79.6548 38.5714C79.6781 39.0955 79.8788 39.59 80.2161 39.955C80.5535 40.3199 81.0023 40.5278 81.4717 40.5367C82.3678 40.5624 83.2957 39.8005 83.3399 38.8069C83.4196 37.1385 83.3647 35.4641 83.3647 33.7759ZM85.727 73.2603H77.3315V75.38H85.727V73.2603ZM83.0708 70.9585V68.8428H79.9612V70.9585H83.0708ZM79.4618 31.4583H83.5453C82.0313 29.1367 81.0786 29.0833 79.4618 31.4583Z" fill="white"/>
<path d="M67.0677 18C67.5034 18.1583 67.9531 18.283 68.3746 18.4829C69.5662 19.0472 70.5385 20.0684 71.1164 21.3626C71.6942 22.6568 71.8397 24.1391 71.5267 25.5426C70.891 28.355 68.4933 30.3361 65.9734 30.1323C64.6597 30.0407 63.4197 29.4227 62.4809 28.3917C61.5421 27.3606 60.9676 25.9857 60.8627 24.5194C60.6432 21.6258 62.414 18.8985 64.9817 18.1722C65.1481 18.1247 65.3111 18.0574 65.4775 18H67.0677ZM66.2514 20.2285C65.5718 20.2317 64.9082 20.4597 64.3444 20.8838C63.7806 21.3079 63.3418 21.9091 63.0834 22.6116C62.8249 23.314 62.7584 24.0863 62.8921 24.831C63.0259 25.5757 63.354 26.2595 63.8351 26.796C64.3161 27.3326 64.9286 27.6979 65.5952 27.8458C66.2617 27.9938 66.9526 27.9179 67.5806 27.6276C68.2086 27.3373 68.7456 26.8456 69.1239 26.2146C69.5022 25.5836 69.7049 24.8415 69.7063 24.082C69.7044 23.0593 69.3396 22.0791 68.6919 21.3567C68.0441 20.6343 67.1664 20.2285 66.2514 20.2285Z" fill="white"/>
<path d="M90 84.5C89.7078 85.1868 89.2226 85.4005 88.555 85.3768C87.2977 85.3313 86.0386 85.3768 84.7813 85.361C83.9721 85.361 83.586 84.979 83.5949 84.2368C83.6037 83.4946 83.9809 83.1443 84.799 83.1384C86.0794 83.1384 87.3597 83.1661 88.6382 83.1245C89.2509 83.1047 89.7007 83.3026 90 83.9162V84.5Z" fill="white"/>
<path d="M55.6671 94C55.49 93.6814 55.2244 93.3865 55.1465 93.0381C55.0296 92.5176 55.2244 91.9892 55.7167 91.8843C56.0478 91.813 56.6021 91.9239 56.7456 92.1752C56.9386 92.5117 56.8695 93.0678 56.8359 93.523C56.8235 93.6913 56.5933 93.8417 56.4622 94H55.6671Z" fill="white"/>
<path d="M31.0118 94C30.8347 93.711 30.5655 93.4458 30.4805 93.1252C30.417 92.894 30.4268 92.6454 30.5082 92.4213C30.5896 92.1973 30.7376 92.0114 30.9274 91.8951C31.1171 91.7789 31.3369 91.7393 31.5497 91.7831C31.7625 91.8269 31.9553 91.9514 32.0955 92.1356C32.432 92.5789 32.4284 93.0796 32.1415 93.5626C32.0391 93.7148 31.9266 93.8584 31.8051 93.992L31.0118 94Z" fill="white"/>
<path d="M43.3404 94C43.1633 93.6596 42.8091 93.3093 42.8268 92.9807C42.8445 92.5849 43.1013 92.0624 43.3899 91.904C43.6432 91.7615 44.2559 91.9219 44.4029 92.1732C44.5976 92.5077 44.5321 93.0638 44.502 93.5171C44.4896 93.6873 44.263 93.8397 44.1355 94H43.3404Z" fill="white"/>
<path d="M67.9956 94C67.8255 93.8175 67.6779 93.6105 67.5565 93.3845C67.3475 92.866 67.4077 92.3573 67.8292 91.9991C67.9977 91.8338 68.2167 91.7472 68.4408 91.7571C68.6649 91.7671 68.877 91.8728 69.0333 92.0525C69.4424 92.4761 69.4495 93.0065 69.1838 93.529C69.0699 93.7034 68.938 93.8622 68.7907 94.002L67.9956 94Z" fill="white"/>
<path d="M80.3224 94C80.1712 93.8316 80.0365 93.6459 79.9204 93.4458C79.6707 92.9016 79.7344 92.3771 80.1736 91.9951C80.3418 91.8288 80.5612 91.7421 80.7855 91.7531C81.0099 91.7642 81.2216 91.8723 81.376 92.0545C81.7815 92.48 81.7833 93.0124 81.5177 93.5329C81.4027 93.7065 81.2688 93.8634 81.1192 94H80.3224Z" fill="white"/>
<path d="M51.162 83.1364H78.5267C79.5892 83.1364 80.016 83.4471 80.0178 84.219C80.0178 85.0245 79.5698 85.3629 78.4896 85.3629H23.6929C22.5967 85.3629 22.1469 85.0284 22.1682 84.2269C22.1894 83.4253 22.6144 83.1383 23.6645 83.1364H51.162Z" fill="white"/>
<path d="M49.9261 87.4687C50.0536 87.4714 50.1793 87.5028 50.2958 87.5609C50.4122 87.6191 50.517 87.7028 50.6039 87.8071C50.6908 87.9115 50.758 88.0343 50.8016 88.1682C50.8452 88.3022 50.8642 88.4446 50.8575 88.587C50.8565 88.7307 50.8298 88.8728 50.7788 89.0048C50.7279 89.1368 50.6538 89.256 50.561 89.3555C50.4681 89.455 50.3584 89.5327 50.2383 89.5841C50.1181 89.6354 49.99 89.6593 49.8615 89.6545C49.7329 89.6496 49.6065 89.616 49.4898 89.5556C49.3731 89.4953 49.2683 89.4094 49.1818 89.3031C49.0952 89.1967 49.0285 89.0721 48.9858 88.9366C48.943 88.801 48.9249 88.6572 48.9326 88.5137C48.9347 88.3716 48.9622 88.2313 49.0135 88.1012C49.0649 87.9712 49.1391 87.854 49.2317 87.7565C49.3244 87.6591 49.4335 87.5834 49.5528 87.534C49.6721 87.4845 49.799 87.4623 49.9261 87.4687Z" fill="white"/>
<path d="M38.5131 88.5949C38.514 88.7374 38.4896 88.8786 38.4412 89.0105C38.3929 89.1423 38.3216 89.2621 38.2314 89.3628C38.1413 89.4635 38.0342 89.5432 37.9162 89.5973C37.7983 89.6513 37.6719 89.6786 37.5444 89.6775C37.4108 89.6743 37.2792 89.6405 37.1578 89.578C37.0364 89.5155 36.9278 89.4258 36.8388 89.3144C36.7498 89.203 36.6822 89.0724 36.6403 88.9305C36.5984 88.7887 36.5831 88.6388 36.5952 88.49C36.6067 88.2058 36.7188 87.9383 36.9068 87.7464C37.0947 87.5545 37.3432 87.4539 37.5975 87.4668C37.8519 87.4797 38.0912 87.6049 38.2629 87.815C38.4346 88.0251 38.5246 88.3028 38.5131 88.587V88.5949Z" fill="white"/>
<path d="M62.2298 89.6795C61.9724 89.6743 61.7273 89.5558 61.5476 89.3498C61.3679 89.1438 61.2681 88.8668 61.27 88.5791C61.27 88.2936 61.3715 88.0197 61.5522 87.8178C61.7329 87.6159 61.9779 87.5024 62.2334 87.5024C62.4889 87.5024 62.7339 87.6159 62.9146 87.8178C63.0952 88.0197 63.1967 88.2936 63.1967 88.5791C63.1981 88.868 63.0973 89.1458 62.9162 89.352C62.735 89.5581 62.4883 89.6759 62.2298 89.6795Z" fill="white"/>
<path d="M75.5341 88.5632C75.5396 88.7095 75.5183 88.8555 75.4714 88.9922C75.4246 89.1289 75.3533 89.2535 75.2618 89.3584C75.1704 89.4632 75.0607 89.546 74.9396 89.6018C74.8184 89.6575 74.6884 89.6851 74.5574 89.6826C74.4264 89.6802 74.2973 89.6479 74.1779 89.5876C74.0585 89.5274 73.9513 89.4406 73.863 89.3324C73.7748 89.2243 73.7072 89.0971 73.6644 88.9587C73.6217 88.8203 73.6047 88.6736 73.6145 88.5276C73.6127 88.3849 73.637 88.2433 73.686 88.1116C73.735 87.9798 73.8076 87.8607 73.8993 87.7615C73.9911 87.6623 74.1 87.5851 74.2194 87.5348C74.3389 87.4844 74.4663 87.4619 74.5938 87.4687C74.7203 87.47 74.8452 87.4994 74.9614 87.5554C75.0775 87.6114 75.1825 87.6928 75.2701 87.7948C75.3577 87.8967 75.4262 88.0172 75.4715 88.1492C75.5168 88.2811 75.5381 88.4219 75.5341 88.5632Z" fill="white"/>
<path d="M26.1685 88.579C26.1728 88.7214 26.1514 88.8633 26.1057 88.9962C26.0599 89.1292 25.9907 89.2505 25.9021 89.3529C25.8136 89.4554 25.7075 89.5369 25.5902 89.5927C25.4729 89.6484 25.3468 89.6772 25.2194 89.6774C25.0865 89.6765 24.9553 89.645 24.8339 89.585C24.7124 89.525 24.6033 89.4377 24.5132 89.3286C24.4232 89.2195 24.3543 89.0908 24.3106 88.9506C24.267 88.8104 24.2496 88.6617 24.2596 88.5137C24.2599 88.3714 24.286 88.2307 24.3363 88.0999C24.3866 87.9692 24.46 87.8512 24.5521 87.753C24.6443 87.6549 24.7533 87.5785 24.8725 87.5286C24.9917 87.4787 25.1187 87.4563 25.2459 87.4627C25.3735 87.4631 25.4997 87.493 25.6165 87.5503C25.7333 87.6077 25.8383 87.6913 25.9249 87.7961C26.0115 87.9009 26.0778 88.0245 26.1197 88.1592C26.1617 88.2939 26.1783 88.4368 26.1685 88.579Z" fill="white"/>
<path d="M87.875 88.589C87.8759 88.7312 87.8517 88.8723 87.8038 89.0041C87.7558 89.1358 87.6851 89.2557 87.5956 89.3568C87.5061 89.458 87.3996 89.5384 87.2822 89.5934C87.1649 89.6484 87.039 89.677 86.9117 89.6775C86.7785 89.677 86.6469 89.6452 86.5254 89.5843C86.4039 89.5234 86.2952 89.4347 86.2063 89.3239C86.1173 89.2131 86.0502 89.0827 86.0091 88.9411C85.968 88.7996 85.954 88.6499 85.9678 88.5019C85.9662 88.3594 85.9912 88.2182 86.0411 88.087C86.091 87.9559 86.1647 87.8379 86.2577 87.7403C86.3506 87.6428 86.4607 87.5679 86.5809 87.5205C86.7011 87.4731 86.8288 87.4541 86.956 87.4648C87.083 87.4688 87.2081 87.5013 87.3237 87.5605C87.4393 87.6196 87.5431 87.7041 87.6288 87.809C87.7146 87.9139 87.7806 88.037 87.8229 88.171C87.8652 88.305 87.8829 88.4472 87.875 88.589Z" fill="white"/>
</g>
<defs>
<clipPath id="clip0_2_3522">
<rect width="68" height="76" fill="white" transform="translate(22 18)"/>
</clipPath>
</defs>
</svg>
