<svg width="113" height="113" viewBox="0 0 113 113" fill="none" xmlns="http://www.w3.org/2000/svg">
<circle cx="56.5" cy="56.5" r="56" stroke="white"/>
<g clip-path="url(#clip0_1_614)">
<path d="M61.4466 25C62.3993 25.2568 63.3379 25.595 64.3065 25.7561C66.7857 26.1705 68.8948 28.3398 68.0926 31.7168C68.53 31.8301 68.978 31.9364 69.4101 32.0709C70.0617 32.2604 70.3645 32.7279 70.2282 33.3105C70.0918 33.8931 69.596 34.157 68.9355 34.0189C68.5052 33.9285 68.0802 33.8099 67.5613 33.6806C67.1009 36.0465 66.4333 38.2848 64.1578 39.4695C64.7616 40.1778 65.4204 40.8135 65.8985 41.5608C66.9132 43.1457 67.1275 44.8935 66.6706 46.7228C66.4616 47.5551 66.2615 48.3909 66.0349 49.3189C69.8528 49.4959 73.6795 48.8868 77.3186 50.2822C77.6267 49.1205 77.3576 48.4706 76.4332 47.9801C75.8488 47.6684 75.2556 47.3762 74.6765 47.0557C74.0656 46.7175 73.8779 46.2093 74.1453 45.6816C74.4127 45.1539 74.9705 44.9892 75.6151 45.3061C76.1888 45.5895 76.7466 45.9029 77.3204 46.1916C78.7813 46.9141 79.456 48.0988 79.4454 49.7155C79.4383 54.5853 79.4383 59.4545 79.4454 64.3231V65.2599C79.9288 64.8916 80.2971 64.6277 80.6478 64.3444C82.1017 63.1171 83.9636 62.4806 85.8646 62.5611C87.1432 62.6036 88.427 62.5611 89.7074 62.5718C90.4971 62.5718 90.9204 62.9259 90.9115 63.5687C90.9027 64.2116 90.4688 64.5551 89.6826 64.5586C88.2659 64.5681 86.8492 64.5681 85.4326 64.5586C84.252 64.5467 83.1024 64.9363 82.1725 65.6636C81.3809 66.2675 80.5787 66.8607 79.819 67.4965C79.6149 67.6743 79.4879 67.9244 79.4649 68.1942C79.4471 75.6978 79.4436 83.2008 79.4542 90.7032C79.4542 90.7688 79.4684 90.8343 79.4896 91.006H80.1732C83.3111 91.006 86.4473 91.006 89.5852 91.006C90.1572 91.006 90.6725 91.0893 90.8655 91.7038C91.0585 92.3182 90.7273 92.7149 90.2209 93.0035H23.928C23.4198 92.7149 23.0904 92.3147 23.2834 91.7038C23.4764 91.0928 23.9917 91.006 24.5637 91.006C29.2482 91.0143 33.932 91.0143 38.6153 91.006H39.4422C39.2829 90.7882 39.1837 90.6324 39.0651 90.496C38.107 89.3946 37.1685 88.2754 36.1768 87.2058C35.1852 86.1363 34.3635 85.0649 34.8806 83.4092L27.4785 86.0265C26.5647 86.3505 25.6528 86.6834 24.7355 87.0004C24.0484 87.2359 23.4959 87.0287 23.2923 86.4869C23.0727 85.8936 23.356 85.3854 24.0838 85.1269C28.5534 83.5331 33.0265 81.9624 37.4908 80.3616C37.9016 80.2115 38.2815 79.9877 38.6117 79.701C42.2266 76.5478 45.8332 73.3845 49.4315 70.2111C50.1505 69.579 50.2054 69.3966 49.8512 68.4846C49.111 66.5721 48.3797 64.6525 47.5969 62.7559C47.0108 61.3393 47.0409 59.8624 47.0462 58.3802C47.0462 57.2079 47.0462 57.2044 45.9341 56.9122C43.864 56.3703 41.7921 55.8373 39.722 55.2936C37.6838 54.7624 36.7577 53.1527 37.2907 51.0915C37.5776 49.9794 37.8644 48.8655 38.1619 47.757C38.7569 45.5452 40.3117 44.6385 42.5306 45.1981L43.1026 45.3451C43.1663 45.1521 43.2389 44.9768 43.2797 44.7944C43.8581 42.4781 44.4348 40.1625 45.0097 37.8474C45.5197 35.7985 47.0462 34.8689 49.1022 35.3594C49.5112 35.4568 49.9132 35.579 50.3258 35.6551C51.9195 35.9544 53.0423 36.7778 53.3486 38.4442L55.9517 37.5109C55.7109 36.7158 55.3479 35.8729 55.2222 34.9981C55.1284 34.2108 55.1643 33.4134 55.3284 32.6376C55.5976 31.251 55.9748 29.8857 56.3272 28.5169C56.7929 26.7071 57.9209 25.5543 59.7466 25.1063C59.829 25.0779 59.9085 25.0418 59.9839 24.9982L61.4466 25ZM49.0313 57.7232C49.0313 58.4475 49.0313 59.0425 49.0313 59.6375C49.0402 62.2938 50.2142 64.0185 52.6863 64.973C55.7729 66.163 58.863 67.3406 61.9495 68.5324C63.5592 69.154 64.1702 70.0411 64.1773 71.7518C64.1843 73.4624 64.1773 75.1589 64.1773 76.8624C64.1773 78.0311 63.8957 78.3127 62.7287 78.3145C60.1663 78.3145 57.6039 78.2985 55.0415 78.334C54.6365 78.3459 54.2463 78.4888 53.9294 78.7412C50.8021 81.4471 47.712 84.183 44.6042 86.9119C44.4714 87.0288 44.2908 87.1368 44.2377 87.2855C43.8127 88.5021 43.4125 89.7275 42.9981 90.96H62.1939V88.2666C62.1939 86.2301 62.1939 84.1937 62.1939 82.159C62.1939 81.4506 62.5481 81.0522 63.136 81.0327C63.7576 81.0115 64.1348 81.4099 64.1737 82.1448C64.1879 82.4086 64.1737 82.676 64.1737 82.9417V86.1787H69.5323V85.6652C69.5323 80.3751 69.5323 75.0868 69.5323 69.8003C69.5496 69.2031 69.4353 68.6094 69.1975 68.0613C68.9597 67.5132 68.6042 67.0241 68.1563 66.6287C66.1712 64.8367 64.195 63.0357 62.1975 61.2543C61.9502 61.0426 61.6575 60.8905 61.3422 60.8098C58.4167 60.059 55.486 59.3311 52.5553 58.598L49.0313 57.7232ZM77.4496 56.4022C76.1941 56.4022 75.0077 56.4022 73.8212 56.4022C72.7375 56.4022 72.4417 56.1011 72.44 55.0316C72.44 53.8221 72.44 52.6108 72.44 51.3323H71.6502C69.2418 51.3323 66.8353 51.311 64.4269 51.3411C63.4105 51.3535 62.773 50.925 62.3763 49.9989C61.6839 48.375 60.9597 46.7618 60.223 45.1556C59.8316 44.3039 58.9834 43.9727 58.1901 44.3109C57.3967 44.6492 57.0514 45.5133 57.4233 46.3722C58.2131 48.1961 58.9905 50.029 59.8706 51.8086C60.6533 53.3918 62.008 54.2648 63.7664 54.3746C64.9334 54.4454 66.1075 54.4011 67.278 54.4118C67.8092 54.4118 68.3405 54.3905 68.8717 54.4436C69.4384 54.5021 69.743 54.8899 69.727 55.4442C69.7348 55.6811 69.649 55.9115 69.4883 56.0858C69.3277 56.26 69.1049 56.3641 68.8682 56.3756C68.6264 56.3995 68.3833 56.4084 68.1404 56.4022H64.2605C64.0214 57.3531 63.8125 58.2775 63.5521 59.1859C63.4406 59.5684 63.5522 59.7863 63.8231 60.0359C65.6364 61.6562 67.4161 63.3137 69.2418 64.9199C70.8002 66.2905 71.6094 67.9657 71.5297 70.0553C71.5156 70.436 71.5297 70.8185 71.5297 71.3374C73.4387 69.8694 75.1971 68.5041 76.9786 67.16C77.1401 67.0521 77.2701 66.9033 77.3554 66.7288C77.4406 66.5543 77.478 66.3603 77.4638 66.1666C77.4461 63.1561 77.4532 60.1457 77.4532 57.1353L77.4496 56.4022ZM51.282 66.5685C51.4485 67.0431 51.5618 67.3743 51.684 67.7036C52.3605 69.54 52.1073 70.5122 50.6215 71.8102C47.2345 74.7852 43.8481 77.762 40.4622 80.7405C40.2852 80.8928 40.1187 81.0557 39.931 81.2275L43.4585 85.2526C43.7737 84.9799 44.0535 84.7373 44.3315 84.4929C48.1176 81.1685 51.9048 77.8452 55.6932 74.5231C56.7238 73.6235 57.2675 72.5327 57.2497 71.1585C57.2409 70.5387 57.3011 69.919 57.2745 69.3009C57.2647 69.1937 57.2306 69.0901 57.1748 68.9981C57.1189 68.906 57.0428 68.8279 56.9523 68.7697C55.1194 68.0312 53.2654 67.3229 51.282 66.5685ZM77.4142 69.324C75.4663 70.8309 73.5998 72.2511 71.7617 73.6997C71.6112 73.8183 71.5404 74.1176 71.5404 74.3319C71.5262 78.4048 71.5262 82.4777 71.5404 86.5506C71.5568 86.8318 71.6387 87.1053 71.7794 87.3493C72.3975 88.495 73.0367 89.6283 73.6831 90.7581C73.7173 90.8192 73.7643 90.8721 73.8208 90.9134C73.8773 90.9546 73.9421 90.9832 74.0107 90.9972C75.1316 91.0149 76.2543 91.0078 77.4142 91.0078V69.324ZM43.0105 54.155C44.05 54.4153 45.0487 54.6685 46.0492 54.9111C46.9134 55.1201 47.4322 54.8315 47.643 53.9921C48.8755 49.0668 50.1021 44.1403 51.3228 39.2127C51.4999 38.476 51.1882 37.9625 50.4462 37.7535C49.853 37.5871 49.2509 37.4507 48.6506 37.3055C47.6536 37.0611 47.218 37.3161 46.9612 38.3273C46.3591 40.7026 45.763 43.0796 45.1727 45.4584C45.1477 45.6124 45.1353 45.7682 45.1355 45.9242L46.1006 46.2394C46.8497 46.4873 47.1631 46.9477 46.986 47.5463C46.8089 48.1448 46.267 48.3555 45.5321 48.143C45.2258 48.0545 44.9159 47.9659 44.5688 47.8792C44.0411 49.9935 43.5311 52.0442 43.0105 54.155ZM50.4852 50.732C52.8333 51.3465 55.0787 51.8405 57.4569 51.4155C57.402 51.2597 57.3737 51.1534 57.3294 51.0614C56.7486 49.7492 56.1394 48.4494 55.5869 47.1248C54.6767 44.9414 55.9411 42.6517 58.2574 42.2479C58.4256 42.2178 58.592 42.1718 58.8028 42.124L58.1423 40.7073C57.5225 39.3827 57.4339 39.3367 55.9907 39.6147C55.9464 39.6235 55.9021 39.6271 55.8596 39.6395C54.3119 40.0609 53.0812 40.9588 52.6226 42.4994C51.8204 45.1875 51.1988 47.9199 50.4799 50.732H50.4852ZM49.2598 55.7222L61.6042 58.8034C61.8344 57.8755 62.0434 57.0326 62.263 56.1472C60.7499 55.6974 59.4309 54.7542 58.5159 53.4679C58.4485 53.4061 58.3677 53.3607 58.2798 53.3353C58.192 53.3098 58.0995 53.3049 58.0094 53.3209C56.3183 53.7123 54.6289 53.6114 52.9449 53.3209C51.9744 53.1439 51.0129 52.9296 50.0017 52.7224C49.7574 53.7087 49.5183 54.6685 49.2544 55.7222H49.2598ZM65.6258 33.1742L57.7084 31.1979C57.5189 32.0019 57.317 32.7226 57.1772 33.4557C57.0065 34.3647 57.153 35.3048 57.5924 36.1187C58.0317 36.9326 58.7372 37.571 59.5908 37.9271C60.4404 38.2884 61.3874 38.3512 62.2773 38.1052C63.1671 37.8592 63.9474 37.3189 64.4907 36.5724C65.2114 35.5648 65.323 34.3695 65.6205 33.1742H65.6258ZM59.4084 69.687C59.2313 70.9584 59.1623 72.152 58.8913 73.2977C58.6062 74.4983 57.7527 75.3908 56.7238 76.2798H62.1727C62.1727 74.5869 62.1939 72.9365 62.1497 71.2878C62.1252 71.1397 62.0676 70.9991 61.9811 70.8764C61.8946 70.7538 61.7815 70.6523 61.6503 70.5795C60.9207 70.2324 60.1486 69.9792 59.4084 69.687ZM58.2397 29.273L66.0685 31.2209C66.6175 29.6892 65.9569 28.3061 64.4748 27.8758C63.4123 27.5695 62.3498 27.318 61.2695 27.0683C59.798 26.7301 58.507 27.6385 58.2397 29.273ZM41.2396 89.9577C41.5655 88.9696 41.8648 88.0948 42.1375 87.2129C42.1642 87.1351 42.1744 87.0525 42.1674 86.9704C42.1604 86.8884 42.1363 86.8088 42.0967 86.7366C40.8961 85.3376 39.676 83.9528 38.4329 82.5344C37.9282 82.9771 37.4536 83.3702 37.0162 83.7934C36.6178 84.1706 36.593 84.6222 36.9489 85.033C38.3373 86.648 39.7486 88.2506 41.2396 89.9577ZM64.1861 88.2188C64.1861 88.8934 64.1737 89.4867 64.1861 90.0781C64.202 90.6979 64.5527 90.9972 65.1583 91.0007C65.9729 91.0007 66.7875 91.0007 67.602 91.0007H71.6024C71.0552 90.0693 70.5735 89.2299 70.0724 88.4189C70.0273 88.362 69.9707 88.3155 69.9063 88.2822C69.8419 88.2489 69.7711 88.2297 69.6987 88.2258C67.8995 88.2187 66.0951 88.2188 64.1861 88.2188ZM60.1362 40.2787L63.9966 48.7132C64.3337 47.8292 64.5995 46.9196 64.7917 45.9932C65.4027 43.0519 63.2192 40.3478 60.1362 40.2787ZM42.6404 47.3798C41.3282 46.7635 40.4977 46.9389 40.1931 47.9447C39.8017 49.2285 39.4848 50.5336 39.1607 51.8405C39.019 52.4125 39.1943 52.9172 39.7327 53.1846C40.1346 53.3847 40.5897 53.4785 41.0803 53.6397C41.6151 51.4917 42.1251 49.4375 42.6404 47.3798ZM74.4658 51.5997V54.4082C75.1971 54.4082 75.8931 54.4082 76.5908 54.4082C77.0742 54.4082 77.393 54.2506 77.4514 53.7158C77.5577 52.7578 77.4142 52.2797 76.8777 52.1398C76.0932 51.9361 75.2963 51.7839 74.4658 51.5997Z" fill="white"/>
</g>
<defs>
<clipPath id="clip0_1_614">
<rect width="68" height="68" fill="white" transform="translate(23 25)"/>
</clipPath>
</defs>
</svg>
