<svg width="113" height="113" viewBox="0 0 113 113" fill="none" xmlns="http://www.w3.org/2000/svg">
<circle cx="56.5" cy="56.5" r="56" stroke="white"/>
<path d="M90 81.9635V87.7932H22.6757C22.1329 87.4141 21.9821 86.8908 22.0016 86.2197C22.0371 84.9893 22.0016 83.7551 22.0141 82.5247C22.0141 81.5767 22.3689 81.1975 23.2558 81.1767C24.0524 81.1615 24.8524 81.1767 25.6472 81.1767H28.7002C28.168 79.8875 28.0172 78.6723 28.4483 77.4286C28.8794 76.1849 29.7628 75.3318 30.9318 74.8066C30.02 73.1553 30.0448 71.5363 30.9212 69.9077C29.2093 69.0698 28.2035 67.7294 28.2123 65.7065C28.2212 63.6836 29.2501 62.3698 30.9283 61.5527C30.0076 59.8995 30.052 58.2805 30.9283 56.6633C29.2217 55.8329 28.2283 54.5096 28.223 52.5171C28.223 50.4923 29.2217 49.1519 30.9052 48.3462L30.2897 46.7821C29.5109 47.4646 28.7552 48.1092 28.0154 48.7822C27.6287 49.133 27.2118 49.3112 26.7364 49.078C26.261 48.8448 26.1315 48.3803 26.135 47.8381C26.1474 45.8948 26.1634 43.9516 26.1261 42.0083C26.104 41.6806 26.1599 41.3523 26.2887 41.0539C26.4174 40.7555 26.6148 40.4969 26.8623 40.3021C31.4049 36.3322 35.9374 32.3509 40.4599 28.3582C45.5134 23.9093 50.5656 19.4565 55.6168 15H56.4133C58.1872 16.5647 59.9565 18.1282 61.721 19.6903C69.5265 26.5609 77.3373 33.4271 85.1535 40.2888C85.4027 40.4827 85.602 40.7408 85.7329 41.0392C85.8638 41.3375 85.922 41.6663 85.9021 41.9951C85.8649 43.8644 85.8826 45.7356 85.9021 47.6068C85.9021 48.1983 85.8897 48.7784 85.3202 49.0742C84.7508 49.3699 84.3109 49.059 83.8833 48.6685C83.1861 48.0296 82.4641 47.4191 81.7421 46.784C81.5168 47.366 81.327 47.8589 81.139 48.3481C84.5734 49.8648 84.8643 54.9229 81.123 56.7183C82.0017 58.3247 81.9946 59.9431 81.1017 61.5736C82.7906 62.3888 83.7999 63.7159 83.7911 65.7406C83.7822 67.7654 82.7604 69.0868 81.1035 69.9021C81.9674 71.8718 81.9692 72.5771 81.1159 74.8313C82.2406 75.3356 83.0904 76.1584 83.5356 77.3945C83.9809 78.6306 83.8212 79.8837 83.3015 81.1862H84.1228C85.6059 81.1862 87.0871 81.2032 88.5684 81.1862C89.207 81.1577 89.7073 81.3265 90 81.9635ZM63.2129 81.1388C63.5198 81.1521 63.7167 81.171 63.9119 81.171H79.3827C79.5819 81.1729 79.781 81.1615 79.9788 81.1369C80.3984 81.0799 80.7912 80.8852 81.1029 80.5796C81.4146 80.274 81.6299 79.8725 81.7191 79.4306C81.9053 78.5794 81.5754 77.5841 80.8321 77.1556C80.363 76.9028 79.846 76.7679 79.3206 76.7612C76.7537 76.7233 74.1868 76.7442 71.6198 76.7442C69.8707 76.7442 68.1233 76.7442 66.3742 76.7442C65.7054 76.7442 65.3098 76.2968 65.3098 75.6598C65.3098 75.0228 65.7267 74.5943 66.3742 74.5696C66.8602 74.5526 67.3481 74.5696 67.8341 74.5696H74.0785C73.3689 73.0814 73.3689 71.6462 74.0785 70.1561H73.2696C71.0575 70.1561 68.8347 70.1561 66.6314 70.1561C65.7568 70.1561 65.3009 69.7655 65.3044 69.0413C65.308 68.3171 65.7675 67.936 66.6438 67.9323C68.5952 67.9323 70.5466 67.9323 72.4873 67.9323C74.8999 67.9323 77.3125 67.9436 79.7233 67.9323C80.2511 67.9366 80.7598 67.7215 81.1419 67.3323C81.5239 66.9431 81.7493 66.4104 81.7705 65.8468C81.7897 65.2978 81.6171 64.7607 81.2863 64.3402C80.9554 63.9197 80.49 63.6458 79.9806 63.5718C79.7148 63.5344 79.4467 63.5192 79.1787 63.5263C74.9507 63.5263 70.724 63.5263 66.4983 63.5263C65.7302 63.5263 65.2938 63.1092 65.2974 62.4324C65.3009 61.7556 65.7355 61.3498 66.5037 61.3461C68.7619 61.3461 71.0184 61.3461 73.2767 61.3461H74.075C73.7288 60.676 73.5446 59.9242 73.539 59.1588C73.5334 58.3934 73.7067 57.6386 74.0431 56.9628H37.971C38.6558 58.4245 38.6487 59.8616 37.9479 61.3461C40.0767 61.3461 42.1061 61.3461 44.1373 61.3461C44.6908 61.3461 45.2461 61.3252 45.7978 61.3631C45.9257 61.3691 46.0513 61.4024 46.1671 61.4609C46.2829 61.5194 46.3866 61.602 46.4722 61.7039C46.5577 61.8057 46.6234 61.9248 46.6654 62.0541C46.7074 62.1834 46.7248 62.3204 46.7167 62.457C46.726 62.7213 46.6386 62.979 46.473 63.1755C46.3074 63.3719 46.0766 63.4917 45.8297 63.5092C45.6099 63.5333 45.3888 63.5402 45.168 63.5301C41.05 63.5301 36.9338 63.5301 32.8194 63.5301C32.5098 63.5233 32.2003 63.548 31.8951 63.604C31.4568 63.697 31.0592 63.9412 30.7634 64.2992C30.4675 64.6571 30.2899 65.1089 30.2576 65.5852C30.2254 66.0615 30.3404 66.536 30.5849 66.9357C30.8295 67.3354 31.1901 67.6382 31.6113 67.7976C31.9505 67.8993 32.3023 67.944 32.6544 67.9304C36.7937 67.9379 40.9329 67.9379 45.0722 67.9304C46.2377 67.9304 46.7327 68.2716 46.722 69.0679C46.7114 69.8641 46.2413 70.1618 45.1095 70.1618H37.9373C38.6824 71.6785 38.6256 73.1079 37.9568 74.5753H40.694C42.3527 74.5753 44.0132 74.5753 45.6736 74.5753C45.921 74.5559 46.1659 74.6389 46.3575 74.8073C46.5491 74.9757 46.6726 75.2165 46.7025 75.4797C46.7581 75.7138 46.7312 75.9617 46.6269 76.176C46.5225 76.3903 46.348 76.5561 46.1366 76.6418C45.8639 76.7369 45.5766 76.7749 45.2904 76.7537C41.1511 76.7537 37.0119 76.7537 32.8726 76.7537C32.585 76.7469 32.2973 76.764 32.0122 76.8049C31.559 76.8741 31.1403 77.1027 30.8223 77.4546C30.5042 77.8065 30.305 78.2617 30.256 78.7481C30.2087 79.2234 30.3106 79.7021 30.5457 80.1088C30.7807 80.5155 31.1356 80.8271 31.5545 80.9947C31.9324 81.1218 32.3276 81.1801 32.7236 81.1672C37.8362 81.1786 42.9488 81.1786 48.0614 81.1672C48.292 81.1672 48.5244 81.135 48.8029 81.1141V60.7887C48.8029 59.3668 49.0513 59.1071 50.3995 59.1071H61.6873C62.9291 59.1071 63.1987 59.4047 63.1987 60.7451V81.1388H63.2129ZM76.0388 41.777C75.8348 41.5875 75.6698 41.4377 75.5066 41.2879C69.2149 35.7558 62.9291 30.2193 56.6492 24.6783C56.1702 24.2556 55.897 24.2157 55.395 24.6613C49.3103 30.048 43.2119 35.4196 37.1 40.776C36.7292 41.1002 36.3655 41.4358 35.9699 41.7941C37.1053 42.3894 37.8823 43.2482 38.2761 44.4805C38.6699 45.7128 38.473 46.894 37.9745 48.0618H73.9863C73.1064 44.9469 73.6439 43.2634 76.0388 41.777ZM56.0053 54.6897H79.1095C79.3544 54.6897 79.5974 54.6897 79.8404 54.6802C80.3195 54.6448 80.772 54.4322 81.1203 54.079C81.4687 53.7258 81.691 53.254 81.7492 52.7446C81.8025 52.2339 81.6857 51.7194 81.4194 51.2916C81.153 50.8638 80.7541 50.5499 80.2928 50.4051C79.9273 50.3135 79.5521 50.274 79.177 50.2875C63.7291 50.2875 48.2814 50.2875 32.8335 50.2875C32.5904 50.2777 32.3469 50.2841 32.1044 50.3065C31.6383 50.3648 31.2038 50.5879 30.8699 50.9403C30.536 51.2928 30.3217 51.7543 30.2613 52.2516C30.2084 52.7504 30.3182 53.2533 30.5723 53.6754C30.8264 54.0976 31.209 54.413 31.6556 54.5684C32.0186 54.6681 32.3936 54.709 32.7679 54.6897C40.5131 54.6922 48.2589 54.6922 56.0053 54.6897ZM83.8141 45.7413C83.8141 44.6038 83.7893 43.6558 83.8141 42.7174C83.8334 42.4864 83.7957 42.2541 83.7049 42.0435C83.614 41.833 83.4731 41.6516 83.2961 41.5173C75.6787 34.8401 68.0695 28.1515 60.4686 21.4516C58.9855 20.146 57.5072 18.8461 56.0336 17.5518C55.9584 17.5941 55.8856 17.6409 55.8154 17.6921C46.722 25.6901 37.6286 33.6906 28.5352 41.6936C28.4057 41.8074 28.2283 41.9723 28.2248 42.1183C28.1999 43.2653 28.2106 44.4123 28.2106 45.6901C28.4891 45.4626 28.6629 45.3318 28.8261 45.1858L54.9356 22.2308C55.8704 21.408 56.1454 21.4061 57.0554 22.2061C64.3382 28.6103 71.6204 35.0164 78.902 41.4244L83.8141 45.7413ZM50.882 61.3536V81.1255H61.1196V61.3536H50.882ZM87.9067 83.4441H24.1304V85.5296H87.9067V83.4441ZM32.3297 59.0843C32.3246 59.3743 32.3732 59.6625 32.4727 59.9323C32.5723 60.2021 32.7209 60.4482 32.9099 60.6563C33.0989 60.8645 33.3245 61.0306 33.5739 61.145C33.8233 61.2595 34.0913 61.3201 34.3627 61.3233C34.9091 61.3154 35.431 61.0793 35.8165 60.6654C36.2021 60.2516 36.4208 59.6929 36.4259 59.109C36.4209 58.5364 36.208 57.9883 35.8319 57.5804C35.4559 57.1725 34.9463 56.9368 34.4106 56.923C34.1402 56.9147 33.8709 56.9644 33.6187 57.0692C33.3666 57.1741 33.1367 57.332 32.9426 57.5335C32.7486 57.735 32.5944 57.9761 32.4891 58.2425C32.3838 58.5089 32.3296 58.7951 32.3297 59.0843ZM79.6808 72.3686C79.686 72.0791 79.6369 71.7915 79.5363 71.5228C79.4357 71.254 79.2857 71.0095 79.0952 70.8038C78.9046 70.598 78.6774 70.4352 78.427 70.3249C78.1766 70.2147 77.908 70.1592 77.6371 70.1618C77.3658 70.162 77.0971 70.2195 76.8465 70.3309C76.5959 70.4423 76.3684 70.6054 76.1769 70.8109C75.9854 71.0164 75.8338 71.2603 75.7306 71.5286C75.6275 71.7968 75.5748 72.0842 75.5758 72.3742C75.5882 72.9469 75.8051 73.4928 76.1822 73.9C76.5592 74.3072 77.0677 74.5447 77.6034 74.5639C77.8752 74.5675 78.1449 74.5133 78.3969 74.4045C78.6489 74.2957 78.8782 74.1345 79.0715 73.9303C79.2647 73.7261 79.4181 73.4828 79.5227 73.2147C79.6273 72.9466 79.681 72.659 79.6808 72.3686ZM79.6808 59.1222C79.6856 58.8325 79.6358 58.5447 79.5344 58.2759C79.433 58.0072 79.2821 57.763 79.0906 57.5578C78.8991 57.3526 78.671 57.1907 78.4198 57.0816C78.1686 56.9726 77.8994 56.9187 77.6283 56.923C77.3571 56.9243 77.0889 56.9827 76.8389 57.0949C76.5889 57.2071 76.362 57.3709 76.1714 57.577C75.9807 57.783 75.83 58.0272 75.7278 58.2957C75.6256 58.5641 75.5739 58.8514 75.5758 59.1412C75.5917 59.7137 75.8112 60.2583 76.1895 60.664C76.5679 61.0697 77.0766 61.3062 77.6123 61.3252C77.8837 61.3265 78.1526 61.2704 78.4036 61.1602C78.6546 61.05 78.8828 60.8879 79.075 60.6832C79.2672 60.4785 79.4197 60.2352 79.5237 59.9673C79.6276 59.6994 79.681 59.4122 79.6808 59.1222ZM32.3297 72.3667C32.3297 72.6567 32.3836 72.9439 32.4882 73.2115C32.5928 73.4792 32.7461 73.722 32.9391 73.9258C33.1322 74.1297 33.3612 74.2906 33.6129 74.3991C33.8646 74.5077 34.1339 74.5618 34.4053 74.5583C34.9519 74.5394 35.4698 74.2922 35.8477 73.8696C36.2255 73.447 36.4331 72.8828 36.4259 72.2984C36.4098 71.7258 36.1861 71.1824 35.8022 70.7827C35.4183 70.3829 34.904 70.1583 34.368 70.1561C34.0974 70.1545 33.8292 70.2109 33.5793 70.3218C33.3293 70.4327 33.1027 70.596 32.9127 70.802C32.7228 71.0081 32.5733 71.2526 32.4732 71.5213C32.3731 71.7901 32.3243 72.0775 32.3297 72.3667ZM36.4259 45.8721C36.4241 45.2987 36.2117 44.749 35.8345 44.3412C35.4572 43.9335 34.9453 43.7003 34.4088 43.6919C33.8627 43.7117 33.3439 43.9523 32.9574 44.3651C32.5708 44.7778 32.3452 45.332 32.3262 45.9157C32.3322 46.4889 32.5479 47.0369 32.9272 47.4422C33.3065 47.8476 33.8192 48.0781 34.3556 48.0846C34.9038 48.0816 35.4288 47.8475 35.8164 47.4332C36.204 47.019 36.4231 46.458 36.4259 45.8721ZM77.662 48.0846C78.1996 48.0746 78.712 47.8397 79.0892 47.4302C79.4664 47.0207 79.6781 46.4694 79.679 45.8948C79.6555 45.2992 79.4162 44.7367 79.0116 44.3263C78.6071 43.9159 78.069 43.6897 77.5112 43.6957C76.9866 43.7273 76.4935 43.9732 76.1339 44.3826C75.7743 44.7919 75.5758 45.3334 75.5793 45.8948C75.5882 46.4799 75.8122 47.0376 76.203 47.4474C76.5938 47.8572 77.1198 48.0861 77.6673 48.0846H77.662Z" fill="white"/>
</svg>
