<svg width="113" height="113" viewBox="0 0 113 113" fill="none" xmlns="http://www.w3.org/2000/svg">
<circle cx="56.5" cy="56.5" r="56" stroke="white"/>
<g clip-path="url(#clip0_1_584)">
<path d="M38.1105 93C37.5155 92.621 37.4021 92.1305 37.5332 91.4222C38.8489 84.5939 41.1953 78.102 43.8444 71.7057C43.8692 71.6437 43.9011 71.5853 43.9259 71.5286C44.2393 70.7495 44.7847 69.9774 44.8113 69.1929C44.8272 68.4368 44.2925 67.6735 44.0109 66.9085C43.4035 65.2546 43.3397 63.5617 43.4619 61.8121C43.531 60.8204 43.2848 59.8004 43.1272 58.8017C42.5216 54.8917 41.8983 50.9852 41.2803 47.077C41.2519 46.8999 41.2006 46.737 41.1687 46.5989C40.7047 46.7175 40.2727 46.8964 39.8317 46.9265C39.3413 46.9773 38.8485 46.855 38.4387 46.5808C38.029 46.3065 37.728 45.8976 37.5881 45.4248C36.2192 41.2952 34.8557 37.1638 33.5329 33.029C33.0583 31.5521 33.802 30.1354 35.2187 29.5634C36.1041 29.2093 36.9895 28.9029 37.8927 28.593C38.5461 28.3681 39.0154 28.5824 39.2261 29.165C39.4368 29.7476 39.196 30.2098 38.5514 30.4595C37.7705 30.7623 36.9789 31.0368 36.1944 31.3325C35.4099 31.6282 35.2506 31.9434 35.5162 32.7598C36.7806 36.6438 38.0491 40.5273 39.3217 44.4101C39.5395 45.0777 39.6759 45.1184 40.2071 44.6102C44.2532 40.854 47.0713 35.9639 48.2928 30.5799C48.5442 29.4979 48.9905 28.763 50.0459 28.4266C50.169 28.3782 50.2875 28.3189 50.4 28.2495C49.5022 27.2135 48.3937 26.9143 47.163 27.3641C46.0013 27.7837 44.8414 28.207 43.6762 28.6143C42.982 28.8569 42.5128 28.6426 42.3073 28.0175C42.1143 27.4296 42.3516 26.9957 43.0157 26.7425C44.5581 26.1617 46.1022 25.5879 47.6446 25.0106H48.8541C50.0671 25.6782 51.266 26.3689 52.4985 26.9957C52.8557 27.181 53.2617 27.2503 53.6602 27.1941C55.9129 26.7443 58.2322 26.7443 60.4849 27.1941C60.884 27.2506 61.2906 27.1812 61.6484 26.9957C62.888 26.3689 64.0797 25.6782 65.291 25.0106H66.4845C68.629 25.8057 70.7717 26.6044 72.918 27.3942C74.8446 28.1025 76.7766 28.7878 78.7015 29.4979C80.3997 30.1248 81.101 31.5379 80.545 33.2556C79.2558 37.2483 77.9572 41.2379 76.6491 45.2247C76.1072 46.868 74.8198 47.332 72.9764 46.5404C72.7604 47.8827 72.5426 49.2091 72.3336 50.5372C71.7799 54.0541 71.228 57.5703 70.6779 61.086C70.6349 61.3239 70.6271 61.5667 70.6548 61.8068C71.0074 64.0748 70.5764 66.3952 69.433 68.3854C69.3306 68.5484 69.2718 68.735 69.2622 68.9272C69.2526 69.1194 69.2925 69.3109 69.3781 69.4833C70.7947 73.0781 72.1955 76.6788 73.5803 80.2854C73.7113 80.629 73.791 81.1213 73.6405 81.4081C73.4899 81.695 72.9888 81.9624 72.6895 81.9163C72.4999 81.8638 72.324 81.7705 72.1742 81.6429C72.0243 81.5154 71.9041 81.3567 71.8218 81.1779C71.1879 79.6249 70.6354 78.0382 70.051 76.464C69.9766 76.2603 69.8845 76.062 69.7659 75.7822C66.4438 78.7572 62.5055 79.9968 58.2041 80.2376C57.9916 80.9158 58.1758 81.2257 58.8469 81.4772C60.9719 82.2599 62.2115 84.5637 61.7971 86.7649C61.6493 87.5915 61.2875 88.3649 60.7478 89.0081C60.208 89.6513 59.5092 90.1419 58.7208 90.431C57.9325 90.7201 57.0821 90.7976 56.2545 90.6558C55.4269 90.514 54.6509 90.1578 54.0037 89.6228C53.3566 89.0877 52.8609 88.3925 52.5661 87.6063C52.2713 86.82 52.1876 85.9703 52.3234 85.1417C52.4591 84.313 52.8096 83.5344 53.34 82.8834C53.8703 82.2324 54.5619 81.7317 55.346 81.4311C55.5921 81.3373 55.8436 81.2541 56.1128 81.1673V80.25C51.7477 79.9968 47.7527 78.7519 44.319 75.7361C43.5522 77.8611 42.7146 79.8622 42.109 81.9341C41.1616 85.1747 40.3807 88.4649 39.5023 91.7268C39.3819 92.173 39.1092 92.5768 38.9056 93.0018L38.1105 93ZM44.8945 57.2858C45.7498 56.5616 46.7468 55.7275 47.7279 54.881C48.3069 54.3852 48.8028 54.3498 49.2348 54.8137C49.6669 55.2777 49.6067 55.8019 49.1038 56.3278C48.4769 56.9812 47.8217 57.6117 47.2444 58.3076C45.6046 60.2803 45.0114 62.5364 45.5338 65.0651C46.3094 68.8104 49.8989 71.8102 53.669 71.8704C55.0857 71.8934 56.0083 71.0222 56.0614 69.6073C56.0773 69.1876 56.0402 68.7644 56.072 68.3465C56.1039 67.9285 55.9569 67.6753 55.6028 67.4292C55.2672 67.18 54.9869 66.864 54.7793 66.5012C53.8744 64.9836 52.9926 63.4501 52.1231 61.9112C51.2748 60.4114 51.7919 58.8034 53.3627 58.104C54.5084 57.5706 55.7561 57.2919 57.0199 57.287C58.2836 57.2821 59.5335 57.5512 60.6833 58.0756C62.3337 58.7946 62.8579 60.399 61.9689 61.9715C61.1171 63.4714 60.2583 64.9659 59.38 66.4481C59.1816 66.7846 58.9479 67.1565 58.6291 67.3512C58.0979 67.6629 57.9952 68.0755 58.0483 68.6121C58.0669 68.8112 58.0669 69.0115 58.0483 69.2106C57.9048 71.0558 59.171 72.1343 61.0357 71.8385C61.2128 71.8102 61.3898 71.7943 61.5581 71.7589C64.8607 71.0983 67.1539 69.1805 68.2872 66.0284C69.3887 62.9684 68.6556 60.2378 66.3889 57.9251C65.8329 57.3567 65.2308 56.8343 64.657 56.2835C64.1258 55.7735 64.1258 55.175 64.657 54.7411C65.1405 54.348 65.5973 54.4472 66.0224 54.8403C67.053 55.7977 68.0824 56.7587 69.1107 57.7232C69.1424 57.6711 69.1657 57.6143 69.1797 57.555C69.835 53.3829 70.4843 49.2108 71.1277 45.0387C71.1309 44.807 71.0432 44.5832 70.8833 44.4154C67.3877 40.5461 65.0749 36.0589 63.8159 31.0067C63.7212 30.6857 63.5035 30.4152 63.2103 30.2541C59.1267 28.3522 55.0272 28.3628 50.9207 30.2098C50.7409 30.2845 50.5835 30.4042 50.4634 30.5574C50.3434 30.7106 50.2649 30.8922 50.2354 31.0846C49.0626 36.0343 46.6626 40.609 43.2565 44.3871C43.0636 44.6342 42.9747 44.9467 43.0086 45.2583C43.4513 48.2546 43.9294 51.2455 44.3987 54.2365C44.5917 55.3804 44.7812 56.5297 44.8945 57.2858ZM63.5998 28.1733C63.844 28.3136 64.0952 28.4413 64.3525 28.5558C65.1635 28.8657 65.608 29.4023 65.7514 30.3001C65.9246 31.2108 66.1704 32.1061 66.4863 32.9776C67.9407 37.4294 70.5038 41.438 73.9344 44.6261C74.4285 45.0848 74.5861 45.0689 74.7685 44.5128C76.0671 40.5509 77.3628 36.5871 78.6555 32.6217C78.8662 31.9718 78.6856 31.6034 78.0481 31.3697C74.1145 29.9365 70.1773 28.5157 66.2366 27.1073C65.9496 27.0188 65.6404 27.0364 65.3654 27.1569C64.7916 27.4278 64.2604 27.7873 63.5998 28.1733ZM46.3112 70.8982C46.035 71.5818 45.7268 72.4265 45.3532 73.241C45.1761 73.643 45.2345 73.9157 45.5639 74.1495C46.6264 74.9003 47.6128 75.791 48.762 76.3613C53.2334 78.5801 57.9119 78.7997 62.6808 77.4875C64.905 76.8748 66.9007 75.8052 68.544 74.153C68.7211 73.9759 68.8769 73.5952 68.8079 73.388C68.5068 72.4937 68.1172 71.6278 67.756 70.7424C67.6858 70.7681 67.6192 70.8026 67.5577 70.8451C66.191 72.179 64.4975 73.1299 62.6471 73.6023C62.4701 73.6483 62.293 73.898 62.2239 74.0928C61.6059 75.6866 60.276 76.6446 58.5636 76.6658C57.5259 76.6782 56.4882 76.6871 55.4505 76.6658C54.1241 76.6304 52.927 76.1045 52.3816 74.9162C51.8876 73.8414 51.0818 73.5368 50.1362 73.1135C48.8081 72.5132 47.5951 71.6561 46.3112 70.8982ZM57.0655 59.1399C56.1145 59.3931 55.1795 59.618 54.2605 59.8978C53.6938 60.0749 53.5805 60.4662 53.8815 60.9851C54.7457 62.4708 55.5939 63.9672 56.4652 65.4494C56.8423 66.0922 57.2815 66.101 57.6534 65.4706C58.5282 63.9878 59.3888 62.4992 60.2353 61.0046C60.5682 60.4202 60.4814 60.1032 59.8315 59.8854C58.9479 59.5879 58.0199 59.3914 57.0655 59.1399ZM56.072 83.349C55.4538 83.5627 54.9339 83.9931 54.6084 84.5605C54.2828 85.1279 54.1737 85.7939 54.3012 86.4355C54.4222 87.0887 54.7702 87.678 55.2838 88.0994C55.7973 88.5207 56.4432 88.7469 57.1075 88.738C57.7717 88.7291 58.4113 88.4857 58.9134 88.0507C59.4154 87.6158 59.7475 87.0173 59.851 86.3611C60.0281 85.0295 59.3197 83.7651 58.174 83.418C58.066 84.4805 57.8198 84.8347 57.1646 84.8347C56.5094 84.8347 56.2597 84.5212 56.072 83.349ZM54.094 74.1017C54.4712 74.2787 54.8785 74.6064 55.3053 74.6329C56.4685 74.7117 57.6358 74.7117 58.7991 74.6329C59.2312 74.6046 59.642 74.2664 59.9962 74.1017L57.0885 72.6354L54.094 74.1017Z" fill="white"/>
<path d="M75.3582 92.9999C75.1262 92.6245 74.7845 92.2792 74.68 91.8702C74.2019 90.009 73.784 88.1337 73.359 86.2584C73.1819 85.4934 73.6104 84.9427 74.3329 84.9674C74.5463 84.9579 74.7559 85.0257 74.9231 85.1585C75.0904 85.2912 75.204 85.48 75.2431 85.6899C75.7248 87.7311 76.2012 89.7747 76.6722 91.8206C76.8068 92.4032 76.4083 92.706 76.0223 92.9999H75.3582Z" fill="white"/>
<path d="M48.8931 43.9922C51.2908 43.9922 53.2299 45.4584 53.7133 47.3231C53.8514 47.8544 53.6496 48.2599 53.1626 48.4582C52.6756 48.6566 52.201 48.6034 51.9035 48.0828C51.7388 47.7959 51.6184 47.4825 51.4396 47.1974C50.586 45.887 49.2048 45.6302 47.8802 46.4519C47.7201 46.5473 47.5424 46.6095 47.3577 46.6347C47.173 46.66 46.9852 46.6478 46.8053 46.5989C46.0757 46.3102 46.0102 45.4478 46.6371 44.9343C47.4145 44.3021 48.3229 44.001 48.8931 43.9922Z" fill="white"/>
<path d="M65.1902 43.9975C66.0173 44.0649 66.8046 44.3816 67.448 44.9059C67.9792 45.3167 68.0554 45.8019 67.7171 46.2889C67.3789 46.7759 66.8459 46.8804 66.2828 46.5138C64.8502 45.577 63.4494 45.9029 62.5817 47.3833C62.4471 47.6117 62.3533 47.8614 62.2276 48.0916C61.9265 48.6105 61.4502 48.6601 60.965 48.4564C60.4797 48.2528 60.2814 47.8508 60.4337 47.3178C60.9419 45.4071 62.8775 43.9656 65.1902 43.9975Z" fill="white"/>
</g>
<defs>
<clipPath id="clip0_1_584">
<rect width="68" height="68" fill="white" transform="translate(23 25)"/>
</clipPath>
</defs>
</svg>
