<svg width="205" height="66" viewBox="0 0 205 66" fill="none" xmlns="http://www.w3.org/2000/svg">
<path d="M67.6411 15.4685V50.4989C67.6411 50.9058 67.3091 51.2355 66.8994 51.2355C66.4897 51.2355 66.1577 50.9058 66.1577 50.4989V15.4685C66.1577 15.0617 66.4897 14.7319 66.8994 14.7319C67.3091 14.7319 67.6411 15.0617 67.6411 15.4685Z" fill="white"/>
<path fill-rule="evenodd" clip-rule="evenodd" d="M36.2864 19.3811C28.7132 19.3811 22.5737 25.4786 22.5737 33.0001C22.5737 40.5218 28.7132 46.6191 36.2864 46.6191C43.8598 46.6191 49.9994 40.5218 49.9994 33.0001C49.9994 25.4786 43.8598 19.3811 36.2864 19.3811ZM20.8596 33.0001C20.8596 24.5384 27.7665 17.6787 36.2864 17.6787C44.8065 17.6787 51.7133 24.5384 51.7133 33.0001C51.7133 41.462 44.8065 48.3216 36.2864 48.3216C27.7665 48.3216 20.8596 41.462 20.8596 33.0001Z" fill="white"/>
<path fill-rule="evenodd" clip-rule="evenodd" d="M14.8335 33.838C14.8335 33.3751 15.216 33 15.6879 33H57.1264C57.5981 33 57.9808 33.3751 57.9808 33.838C57.9808 34.3006 57.5981 34.6759 57.1264 34.6759H15.6879C15.216 34.6759 14.8335 34.3006 14.8335 33.838Z" fill="#0057B7"/>
<path fill-rule="evenodd" clip-rule="evenodd" d="M17.0029 38.147C17.0029 37.6842 17.3866 37.3091 17.86 37.3091H54.7133C55.1865 37.3091 55.5701 37.6842 55.5701 38.147C55.5701 38.6096 55.1865 38.9847 54.7133 38.9847H17.86C17.3866 38.9847 17.0029 38.6096 17.0029 38.147Z" fill="#FFD700"/>
<path d="M88.6021 43.9018C87.3038 43.9018 85.9427 43.6714 84.5193 43.2103C83.0961 42.7492 81.9097 41.9728 80.961 40.8811C80.761 40.6383 80.6738 40.3838 80.6987 40.1168C80.7486 39.8257 80.9109 39.5829 81.1856 39.3888C81.4354 39.219 81.6976 39.1583 81.9723 39.207C82.272 39.2553 82.509 39.3888 82.6841 39.6071C83.4082 40.4321 84.2822 41.0146 85.306 41.354C86.3548 41.6696 87.491 41.8272 88.7145 41.8272C90.8123 41.8272 92.298 41.4633 93.172 40.7356C94.046 40.0075 94.483 39.1583 94.483 38.1878C94.483 37.2417 94.0086 36.465 93.0595 35.8586C92.1357 35.2278 90.6998 34.7788 88.7519 34.5118C86.2548 34.1724 84.4071 33.5171 83.2083 32.5466C82.0097 31.576 81.4104 30.4478 81.4104 29.1619C81.4104 27.9488 81.7225 26.9297 82.3467 26.1048C82.9712 25.2555 83.8203 24.6247 84.894 24.2122C85.9925 23.7755 87.2412 23.5571 88.6397 23.5571C90.3376 23.5571 91.7735 23.8604 92.9471 24.467C94.1207 25.0493 95.0698 25.8379 95.794 26.8326C95.9936 27.0753 96.0562 27.3422 95.9812 27.6333C95.9313 27.9002 95.7441 28.1186 95.4193 28.2884C95.1698 28.4097 94.9075 28.4462 94.6328 28.3976C94.3581 28.3491 94.1207 28.2035 93.9211 27.9609C93.2969 27.1845 92.5353 26.6021 91.6361 26.214C90.7621 25.8015 89.7383 25.5952 88.5647 25.5952C86.9914 25.5952 85.768 25.9228 84.894 26.5779C84.02 27.233 83.583 28.0216 83.583 28.9436C83.583 29.5745 83.7577 30.1326 84.1072 30.6178C84.4819 31.0787 85.0812 31.4791 85.9053 31.8188C86.7295 32.1341 87.828 32.3889 89.2016 32.5831C91.0742 32.8256 92.5478 33.2381 93.6214 33.8203C94.7203 34.4028 95.4943 35.0823 95.9438 35.8586C96.4182 36.6106 96.6555 37.4235 96.6555 38.2971C96.6555 39.4374 96.2808 40.4321 95.5317 41.2813C94.7826 42.1307 93.7962 42.7857 92.5727 43.2468C91.3489 43.6835 90.0255 43.9018 88.6021 43.9018Z" fill="white"/>
<path d="M108.759 43.7199C108.285 43.7199 107.935 43.4653 107.71 42.9556L99.1702 25.1951C99.0702 24.9281 99.0702 24.6734 99.1702 24.4307C99.2702 24.1639 99.4574 23.9697 99.7321 23.8484C100.007 23.7271 100.269 23.715 100.519 23.812C100.793 23.9091 100.993 24.0911 101.118 24.358L109.508 41.9729H108.123L116.363 24.3216C116.488 24.0547 116.688 23.8727 116.962 23.7756C117.262 23.6786 117.549 23.6907 117.824 23.812C118.098 23.9334 118.286 24.1275 118.386 24.3944C118.511 24.637 118.511 24.8917 118.386 25.1586L109.958 42.9556C109.708 43.4653 109.309 43.7199 108.759 43.7199Z" fill="white"/>
<path d="M124.44 43.6837C124.116 43.6837 123.841 43.5864 123.616 43.3926C123.417 43.1742 123.317 42.9073 123.317 42.5917V24.8675C123.317 24.5278 123.417 24.261 123.616 24.0668C123.841 23.8727 124.116 23.7757 124.44 23.7757C124.79 23.7757 125.065 23.8727 125.264 24.0668C125.464 24.261 125.564 24.5278 125.564 24.8675V42.5917C125.564 42.9073 125.464 43.1742 125.264 43.3926C125.065 43.5864 124.79 43.6837 124.44 43.6837ZM124.403 19.5903C123.928 19.5903 123.516 19.4326 123.167 19.1171C122.842 18.7775 122.68 18.365 122.68 17.8797C122.68 17.3217 122.855 16.9092 123.204 16.6423C123.579 16.3511 123.991 16.2056 124.44 16.2056C124.865 16.2056 125.252 16.3511 125.602 16.6423C125.976 16.9092 126.163 17.3217 126.163 17.8797C126.163 18.365 125.988 18.7775 125.639 19.1171C125.314 19.4326 124.902 19.5903 124.403 19.5903Z" fill="white"/>
<path d="M141.456 43.6836C140.083 43.6594 138.859 43.3559 137.785 42.7737C136.712 42.167 135.875 41.342 135.276 40.2987C134.676 39.2312 134.377 38.0302 134.377 36.6958V26.4688V24.5035V18.5711C134.377 18.2314 134.476 17.9645 134.676 17.7704C134.901 17.5521 135.176 17.4429 135.5 17.4429C135.85 17.4429 136.125 17.5521 136.324 17.7704C136.549 17.9645 136.661 18.2314 136.661 18.5711V24.5035V26.4688V36.6958C136.661 38.103 137.111 39.2554 138.01 40.1531C138.909 41.0268 140.07 41.4634 141.494 41.4634H142.317C142.667 41.4634 142.942 41.5727 143.142 41.7911C143.366 41.9852 143.479 42.2519 143.479 42.5916C143.479 42.9072 143.366 43.1741 143.142 43.3925C142.942 43.5863 142.667 43.6836 142.317 43.6836H141.456Z" fill="white"/>
<path d="M157.537 43.9018C155.54 43.9018 153.741 43.4651 152.143 42.5915C150.57 41.6938 149.322 40.4807 148.397 38.9521C147.499 37.3993 147.049 35.6645 147.049 33.7475C147.049 31.8067 147.499 30.0719 148.397 28.5432C149.322 26.9904 150.57 25.7772 152.143 24.9037C153.741 24.006 155.54 23.5571 157.537 23.5571C159.535 23.5571 161.32 24.006 162.893 24.9037C164.467 25.7772 165.703 26.9904 166.602 28.5432C167.526 30.0719 167.988 31.8067 167.988 33.7475L167.051 35.2034C167.051 36.8534 166.627 38.3334 165.778 39.6436C164.953 40.9539 163.83 41.9972 162.407 42.7736C160.983 43.5258 159.36 43.9018 157.537 43.9018ZM157.537 41.8638C159.11 41.8638 160.509 41.512 161.732 40.8084C162.981 40.0803 163.955 39.1097 164.654 37.8967C165.378 36.6592 165.74 35.2761 165.74 33.7475C165.74 32.1948 165.378 30.8117 164.654 29.5987C163.955 28.3612 162.981 27.3907 161.732 26.6871C160.509 25.9592 159.11 25.5952 157.537 25.5952C155.989 25.5952 154.59 25.9592 153.342 26.6871C152.093 27.3907 151.107 28.3612 150.383 29.5987C149.659 30.8117 149.297 32.1948 149.297 33.7475C149.297 35.2761 149.659 36.6592 150.383 37.8967C151.107 39.1097 152.093 40.0803 153.342 40.8084C154.59 41.512 155.989 41.8638 157.537 41.8638ZM166.864 43.6835C166.539 43.6835 166.264 43.5862 166.04 43.3924C165.84 43.174 165.74 42.9071 165.74 42.5915V35.9314L166.452 33.7475H167.988V42.5915C167.988 42.9071 167.888 43.174 167.688 43.3924C167.488 43.5862 167.214 43.6835 166.864 43.6835Z" fill="white"/>
<path d="M174.494 34.5116C174.195 34.5116 173.945 34.4267 173.745 34.257C173.57 34.0628 173.483 33.82 173.483 33.5289C173.483 33.2378 173.57 33.0074 173.745 32.8374C173.945 32.6435 174.195 32.5463 174.494 32.5463H183.896C184.196 32.5463 184.433 32.6435 184.608 32.8374C184.808 33.0074 184.907 33.2378 184.907 33.5289C184.907 33.82 184.808 34.0628 184.608 34.257C184.433 34.4267 184.196 34.5116 183.896 34.5116H174.494ZM182.66 43.9015C180.712 43.9015 178.964 43.4528 177.416 42.555C175.893 41.6573 174.682 40.4439 173.783 38.9156C172.909 37.387 172.472 35.6642 172.472 33.7473C172.472 31.8065 172.884 30.0716 173.708 28.543C174.532 27.0144 175.668 25.8133 177.116 24.9399C178.565 24.0421 180.225 23.5933 182.098 23.5933C183.696 23.5933 185.157 23.8966 186.48 24.5031C187.804 25.0855 188.953 25.9832 189.927 27.1964C190.126 27.439 190.201 27.6937 190.152 27.9606C190.101 28.2275 189.939 28.4459 189.664 28.6157C189.44 28.7856 189.19 28.8584 188.915 28.8341C188.641 28.7856 188.403 28.64 188.204 28.3974C186.605 26.5534 184.57 25.6314 182.098 25.6314C180.625 25.6314 179.326 25.9832 178.202 26.6868C177.104 27.3904 176.242 28.3489 175.618 29.5619C175.019 30.7752 174.719 32.1703 174.719 33.7473C174.719 35.2759 175.056 36.6589 175.73 37.8964C176.405 39.1095 177.328 40.08 178.502 40.8081C179.701 41.5117 181.087 41.8635 182.66 41.8635C183.684 41.8635 184.645 41.718 185.544 41.4268C186.468 41.1354 187.267 40.6867 187.941 40.08C188.166 39.8859 188.416 39.7768 188.69 39.7527C188.965 39.7282 189.202 39.8131 189.402 40.0073C189.652 40.2256 189.777 40.4805 189.777 40.7716C189.802 41.0385 189.702 41.2689 189.477 41.4631C187.654 43.0886 185.382 43.9015 182.66 43.9015Z" fill="white"/>
<path d="M136.661 24.5034V26.4687H141.606C141.905 26.4687 142.143 26.3838 142.317 26.214C142.517 26.0199 142.617 25.7772 142.617 25.4861C142.617 25.1949 142.517 24.9644 142.317 24.7946C142.143 24.6005 141.905 24.5034 141.606 24.5034H136.661Z" fill="white"/>
</svg>
