<svg xmlns="http://www.w3.org/2000/svg" width="38" height="38" viewBox="0 0 38 38" fill="none"><path fill-rule="evenodd" clip-rule="evenodd" d="M19 38C29.4934 38 38 29.4934 38 19C38 8.50659 29.4934 0 19 0C8.50659 0 0 8.50659 0 19C0 29.4934 8.50659 38 19 38ZM7.65901 10.659C8.08097 10.2371 8.65326 10 9.25 10H28.75C29.3467 10 29.919 10.2371 30.341 10.659C30.7629 11.081 31 11.6533 31 12.25V25.75C31 26.3467 30.7629 26.919 30.341 27.341C29.919 27.7629 29.3467 28 28.75 28H9.25C8.65326 28 8.08097 27.7629 7.65901 27.341C7.23705 26.919 7 26.3467 7 25.75V12.25C7 11.6533 7.23705 11.081 7.65901 10.659ZM19 17.107L26.101 11.5H11.899L19 17.107ZM10 13.969V26.5H28V13.9675L19 20.8915L10 13.969Z" fill="white"></path></svg>