<svg xmlns="http://www.w3.org/2000/svg" width="38" height="38" viewBox="0 0 38 38" fill="none"><path fill-rule="evenodd" clip-rule="evenodd" d="M38 19C38 29.4934 29.4934 38 19 38C8.50659 38 0 29.4934 0 19C0 8.50659 8.50659 0 19 0C29.4934 0 38 8.50659 38 19ZM19 33C19.2256 32.9987 19.4441 32.9212 19.62 32.78C19.6371 32.7647 19.6736 32.7338 19.7278 32.688L19.7283 32.6876C20.8814 31.7125 30 24.0022 30 16C30 13.0826 28.8411 10.2847 26.7782 8.22182C24.7153 6.15892 21.9174 4.99999 19 4.99999C16.0826 4.99999 13.2847 6.15892 11.2218 8.22182C9.15893 10.2847 8 13.0826 8 16C8 24.0022 17.1186 31.7126 18.2717 32.6876C18.3262 32.7336 18.3629 32.7647 18.38 32.78C18.5559 32.9212 18.7744 32.9987 19 33ZM10 16C10 13.613 10.9482 11.3239 12.636 9.63603C14.3239 7.9482 16.6131 6.99999 19 6.99999C21.3869 6.99999 23.6761 7.9482 25.364 9.63603C27.0518 11.3239 28 13.613 28 16C28 22.3 21.13 28.81 19 30.69C16.87 28.81 10 22.3 10 16ZM23.1573 13.2221C23.7068 14.0444 24 15.0111 24 16C24 17.3261 23.4732 18.5978 22.5355 19.5355C21.5979 20.4732 20.3261 21 19 21C18.0111 21 17.0444 20.7068 16.2221 20.1573C15.3999 19.6079 14.759 18.827 14.3806 17.9134C14.0022 16.9998 13.9031 15.9944 14.0961 15.0245C14.289 14.0546 14.7652 13.1637 15.4645 12.4645C16.1637 11.7652 17.0546 11.289 18.0245 11.0961C18.9945 10.9031 19.9998 11.0022 20.9134 11.3806C21.827 11.759 22.6079 12.3999 23.1573 13.2221ZM16.5056 14.3333C16.1759 14.8266 16 15.4067 16 16C16 16.7956 16.3161 17.5587 16.8787 18.1213C17.4413 18.6839 18.2044 19 19 19C19.5933 19 20.1734 18.824 20.6667 18.4944C21.1601 18.1648 21.5446 17.6962 21.7716 17.148C21.9987 16.5999 22.0581 15.9967 21.9424 15.4147C21.8266 14.8328 21.5409 14.2982 21.1213 13.8787C20.7018 13.4591 20.1672 13.1734 19.5853 13.0576C19.0033 12.9419 18.4001 13.0013 17.8519 13.2284C17.3038 13.4554 16.8352 13.8399 16.5056 14.3333Z" fill="white"></path></svg>