<svg width="542" height="56" viewBox="0 0 542 56" fill="none" xmlns="http://www.w3.org/2000/svg">
<g filter="url(#filter0_d_1_274)">
<path d="M301.231 11.3527C301.982 9.93039 304.018 9.93038 304.769 11.3527L308.654 18.7164C308.943 19.2649 309.471 19.6482 310.082 19.7539L318.286 21.1734C319.87 21.4475 320.5 23.3848 319.379 24.538L313.576 30.5086C313.144 30.9533 312.943 31.5733 313.031 32.1872L314.216 40.4282C314.445 42.02 312.797 43.2173 311.354 42.5077L303.882 38.8339C303.326 38.5603 302.674 38.5603 302.118 38.8339L294.646 42.5077C293.203 43.2173 291.555 42.02 291.784 40.4282L292.969 32.1872C293.057 31.5733 292.856 30.9533 292.424 30.5086L286.621 24.538C285.5 23.3848 286.13 21.4475 287.714 21.1734L295.918 19.7539C296.529 19.6482 297.057 19.2649 297.346 18.7164L301.231 11.3527Z" fill="#F5FF26"/>
</g>
<g filter="url(#filter1_d_1_274)">
<path d="M408.231 11.3527C408.982 9.93039 411.018 9.93038 411.769 11.3527L415.654 18.7164C415.943 19.2649 416.471 19.6482 417.082 19.7539L425.286 21.1734C426.87 21.4475 427.5 23.3848 426.379 24.538L420.576 30.5086C420.144 30.9533 419.943 31.5733 420.031 32.1872L421.216 40.4282C421.445 42.02 419.797 43.2173 418.354 42.5077L410.882 38.8339C410.326 38.5603 409.674 38.5603 409.118 38.8339L401.646 42.5077C400.203 43.2173 398.555 42.02 398.784 40.4282L399.969 32.1872C400.057 31.5733 399.856 30.9533 399.424 30.5086L393.621 24.538C392.5 23.3848 393.13 21.4475 394.714 21.1734L402.918 19.7539C403.529 19.6482 404.057 19.2649 404.346 18.7164L408.231 11.3527Z" fill="#F5FF26"/>
</g>
<g filter="url(#filter2_d_1_274)">
<path d="M354.722 11.4573C355.466 10.0104 357.534 10.0105 358.278 11.4573L362.007 18.705C362.292 19.2603 362.821 19.6503 363.436 19.7594L371.389 21.1707C372.957 21.449 373.586 23.3595 372.491 24.5156L366.806 30.5145C366.388 30.9564 366.193 31.565 366.277 32.1679L367.431 40.3963C367.655 41.9947 365.991 43.1865 364.55 42.4597L357.401 38.8542C356.834 38.5685 356.166 38.5685 355.599 38.8542L348.45 42.4597C347.009 43.1865 345.345 41.9947 345.569 40.3963L346.723 32.1679C346.807 31.565 346.612 30.9564 346.194 30.5145L340.509 24.5156C339.414 23.3595 340.043 21.449 341.611 21.1707L349.564 19.7594C350.179 19.6503 350.708 19.2603 350.993 18.705L354.722 11.4573Z" fill="#F5FF26"/>
</g>
<g filter="url(#filter3_d_1_274)">
<path d="M461.722 11.4573C462.466 10.0104 464.534 10.0105 465.278 11.4573L469.007 18.705C469.292 19.2603 469.821 19.6503 470.436 19.7594L478.389 21.1707C479.957 21.449 480.586 23.3595 479.491 24.5156L473.806 30.5145C473.388 30.9564 473.193 31.565 473.277 32.1679L474.431 40.3963C474.655 41.9947 472.991 43.1865 471.55 42.4597L464.401 38.8542C463.834 38.5685 463.166 38.5685 462.599 38.8542L455.45 42.4597C454.009 43.1865 452.345 41.9947 452.569 40.3963L453.723 32.1679C453.807 31.565 453.612 30.9564 453.194 30.5145L447.509 24.5156C446.414 23.3595 447.043 21.449 448.611 21.1707L456.564 19.7594C457.179 19.6503 457.708 19.2603 457.993 18.705L461.722 11.4573Z" fill="#F5FF26"/>
</g>
<g filter="url(#filter4_d_1_274)">
<path d="M515.231 11.3527C515.982 9.93039 518.018 9.93038 518.769 11.3527L522.654 18.7164C522.943 19.2649 523.471 19.6482 524.082 19.7539L532.286 21.1734C533.87 21.4475 534.5 23.3848 533.379 24.538L527.576 30.5086C527.144 30.9533 526.943 31.5733 527.031 32.1872L528.216 40.4282C528.445 42.02 526.797 43.2173 525.354 42.5077L517.882 38.8339C517.326 38.5603 516.674 38.5603 516.118 38.8339L508.646 42.5077C507.203 43.2173 505.555 42.02 505.784 40.4282L506.969 32.1872C507.057 31.5733 506.856 30.9533 506.424 30.5086L500.621 24.538C499.5 23.3848 500.13 21.4475 501.714 21.1734L509.918 19.7539C510.529 19.6482 511.057 19.2649 511.346 18.7164L515.231 11.3527Z" fill="#F5FF26"/>
</g>
<path d="M59.2446 28.0892C59.1891 38.2437 50.604 46.4386 40.0392 46.3852C29.4744 46.3496 20.9449 38.0656 21.0004 27.911C21.0559 17.7565 29.6595 9.56156 40.2057 9.61501C50.7705 9.66845 59.3001 17.9346 59.2446 28.0892Z" fill="#221F1F"/>
<path d="M31.0286 23.7422C31.6762 23.8848 32.3978 23.1187 32.6383 22.032C32.8788 20.9631 32.5643 19.9655 31.9167 19.8408C31.4727 19.7517 31.0101 20.0724 30.6771 20.6068C30.9731 20.7493 31.1211 21.1056 30.9731 21.4085C30.8436 21.6757 30.5475 21.836 30.2515 21.7648C30.122 22.7624 30.4365 23.6175 31.0286 23.7422ZM27.9202 21.4797C28.4383 18.8075 30.048 16.8657 31.5097 17.1329C32.9713 17.4001 33.7299 19.7873 33.2119 22.4596C32.6938 25.1318 31.0841 27.0737 29.6224 26.8064C28.1607 26.5392 27.4022 24.152 27.9202 21.4797ZM53.2128 23.7422C36.8753 34.2531 25.6444 28.9264 25.6444 28.9264C25.4779 32.5785 31.9722 43.8019 39.7432 43.9445C47.5141 44.0692 53.2128 23.7422 53.2128 23.7422ZM29.5114 27.2518C31.2136 27.5725 33.0823 25.4525 33.6559 22.5486C34.2295 19.6448 33.3044 17.026 31.6022 16.7053C29.9 16.3846 28.0497 18.5046 27.4762 21.4085C26.8841 24.3123 27.8092 26.9311 29.5114 27.2518ZM35.3766 25.7553C35.9502 25.1318 36.5978 24.5439 37.3564 23.9917C40.7238 21.4976 44.4242 20.874 45.6084 22.6021C46.0709 23.2791 46.0894 24.2054 45.7379 25.2209C46.9405 23.3147 47.3291 21.551 46.5705 20.5712C45.3309 18.95 41.4639 20.0545 37.9484 23.0653C36.9493 23.9204 36.0797 24.8468 35.3766 25.7553ZM39.1326 17.792C41.8339 16.0283 46.478 15.0663 48.9573 18.7362C47.4586 10.2919 40.9828 15.1554 39.1326 17.792ZM58.745 28.0891C58.6895 37.9764 50.3265 45.9397 40.0392 45.9041C29.7519 45.8507 21.5184 37.7983 21.5184 27.9288C21.5184 21.5154 24.8303 16.9191 27.9942 14.4428C31.8612 11.4143 34.4885 13.748 35.4136 15.4939C35.3026 14.7457 34.9881 12.6079 34.1185 11.058C36.0242 10.4344 38.0595 10.0959 40.1872 10.0959C50.493 10.1494 58.782 18.2018 58.745 28.0891ZM46.9961 37.1213C44.9793 40.6131 42.463 43.4635 39.6507 43.41C37.9114 43.3744 36.2462 42.733 34.7105 41.7532C35.2471 40.8803 38.2815 36.6225 46.9961 37.1213Z" fill="#05BC52"/>
<path d="M235.628 30.0349L238.615 23.062L241.602 30.062H235.628V30.0349ZM242.955 18.748H234.304L225.23 37.469H232.472L234.05 33.8062H243.18L244.73 37.469H252L242.955 18.748Z" fill="white"/>
<path d="M176.651 23.5504H184.71V37.4418H191.332V23.5504H199.391V18.748H176.651V23.5504Z" fill="white"/>
<path d="M161.209 29.9535H172.593V26.2093H161.209V23.469H174.537V18.748H154.784V37.4418H175.016V32.8294H161.209V29.9535Z" fill="white"/>
<path d="M151.966 22.0853V18.748H130.495V23.5504H142.048L130.325 34.1318V37.4418H152.023V32.6395H140.385L151.966 22.0853Z" fill="white"/>
<path d="M115.447 33.0466C111.22 33.0466 108.628 31.6628 108.628 28.1086C108.628 24.5543 111.192 23.1977 115.447 23.1977C119.646 23.1977 122.294 24.5543 122.294 28.1086C122.294 31.6628 119.646 33.0466 115.447 33.0466ZM115.447 18.2869C106.965 18.2869 101.668 21.4342 101.668 28.1086C101.668 34.7559 106.965 37.9574 115.447 37.9574C123.957 37.9574 129.255 34.783 129.255 28.1086C129.255 21.4342 123.957 18.2869 115.447 18.2869Z" fill="white"/>
<path d="M83.8028 23.1434H90.2275C92.2281 23.1434 92.9889 24.1744 92.9889 25.5039C92.9889 26.3992 92.4254 28 90.1147 28H83.8028V23.1434ZM99.6954 25.5039C99.6954 21.5427 97.0748 18.7209 90.791 18.7209H77.2372V37.4419H83.7746V32.1512H88.0014L92.7072 37.4419H100.879L95.4123 31.3644C98.1456 30.252 99.6954 27.8101 99.6954 25.5039Z" fill="white"/>
<path d="M216.354 18.748L208.295 25.5853V18.748H201.758V37.4418H208.295V32.2868L210.775 30.2791L216.382 37.4418H224.526L215.509 26.3992L224.836 18.748H216.354Z" fill="white"/>
<defs>
<filter id="filter0_d_1_274" x="278.053" y="2.28589" width="49.8938" height="48.4309" filterUnits="userSpaceOnUse" color-interpolation-filters="sRGB">
<feFlood flood-opacity="0" result="BackgroundImageFix"/>
<feColorMatrix in="SourceAlpha" type="matrix" values="0 0 0 0 0 0 0 0 0 0 0 0 0 0 0 0 0 0 127 0" result="hardAlpha"/>
<feOffset/>
<feGaussianBlur stdDeviation="4"/>
<feComposite in2="hardAlpha" operator="out"/>
<feColorMatrix type="matrix" values="0 0 0 0 0.96851 0 0 0 0 1 0 0 0 0 0.316667 0 0 0 1 0"/>
<feBlend mode="normal" in2="BackgroundImageFix" result="effect1_dropShadow_1_274"/>
<feBlend mode="normal" in="SourceGraphic" in2="effect1_dropShadow_1_274" result="shape"/>
</filter>
<filter id="filter1_d_1_274" x="385.053" y="2.28589" width="49.8938" height="48.4309" filterUnits="userSpaceOnUse" color-interpolation-filters="sRGB">
<feFlood flood-opacity="0" result="BackgroundImageFix"/>
<feColorMatrix in="SourceAlpha" type="matrix" values="0 0 0 0 0 0 0 0 0 0 0 0 0 0 0 0 0 0 127 0" result="hardAlpha"/>
<feOffset/>
<feGaussianBlur stdDeviation="4"/>
<feComposite in2="hardAlpha" operator="out"/>
<feColorMatrix type="matrix" values="0 0 0 0 0.96851 0 0 0 0 1 0 0 0 0 0.316667 0 0 0 1 0"/>
<feBlend mode="normal" in2="BackgroundImageFix" result="effect1_dropShadow_1_274"/>
<feBlend mode="normal" in="SourceGraphic" in2="effect1_dropShadow_1_274" result="shape"/>
</filter>
<filter id="filter2_d_1_274" x="331.959" y="2.37207" width="49.0823" height="48.3059" filterUnits="userSpaceOnUse" color-interpolation-filters="sRGB">
<feFlood flood-opacity="0" result="BackgroundImageFix"/>
<feColorMatrix in="SourceAlpha" type="matrix" values="0 0 0 0 0 0 0 0 0 0 0 0 0 0 0 0 0 0 127 0" result="hardAlpha"/>
<feOffset/>
<feGaussianBlur stdDeviation="4"/>
<feComposite in2="hardAlpha" operator="out"/>
<feColorMatrix type="matrix" values="0 0 0 0 0.96851 0 0 0 0 1 0 0 0 0 0.316667 0 0 0 1 0"/>
<feBlend mode="normal" in2="BackgroundImageFix" result="effect1_dropShadow_1_274"/>
<feBlend mode="normal" in="SourceGraphic" in2="effect1_dropShadow_1_274" result="shape"/>
</filter>
<filter id="filter3_d_1_274" x="438.959" y="2.37207" width="49.0823" height="48.3059" filterUnits="userSpaceOnUse" color-interpolation-filters="sRGB">
<feFlood flood-opacity="0" result="BackgroundImageFix"/>
<feColorMatrix in="SourceAlpha" type="matrix" values="0 0 0 0 0 0 0 0 0 0 0 0 0 0 0 0 0 0 127 0" result="hardAlpha"/>
<feOffset/>
<feGaussianBlur stdDeviation="4"/>
<feComposite in2="hardAlpha" operator="out"/>
<feColorMatrix type="matrix" values="0 0 0 0 0.96851 0 0 0 0 1 0 0 0 0 0.316667 0 0 0 1 0"/>
<feBlend mode="normal" in2="BackgroundImageFix" result="effect1_dropShadow_1_274"/>
<feBlend mode="normal" in="SourceGraphic" in2="effect1_dropShadow_1_274" result="shape"/>
</filter>
<filter id="filter4_d_1_274" x="492.053" y="2.28589" width="49.8938" height="48.4309" filterUnits="userSpaceOnUse" color-interpolation-filters="sRGB">
<feFlood flood-opacity="0" result="BackgroundImageFix"/>
<feColorMatrix in="SourceAlpha" type="matrix" values="0 0 0 0 0 0 0 0 0 0 0 0 0 0 0 0 0 0 127 0" result="hardAlpha"/>
<feOffset/>
<feGaussianBlur stdDeviation="4"/>
<feComposite in2="hardAlpha" operator="out"/>
<feColorMatrix type="matrix" values="0 0 0 0 0.96851 0 0 0 0 1 0 0 0 0 0.316667 0 0 0 1 0"/>
<feBlend mode="normal" in2="BackgroundImageFix" result="effect1_dropShadow_1_274"/>
<feBlend mode="normal" in="SourceGraphic" in2="effect1_dropShadow_1_274" result="shape"/>
</filter>
</defs>
</svg>
