<svg xmlns="http://www.w3.org/2000/svg" width="38" height="38" viewBox="0 0 38 38" fill="none"><path fill-rule="evenodd" clip-rule="evenodd" d="M19 38C29.4934 38 38 29.4934 38 19C38 8.50659 29.4934 0 19 0C8.50659 0 0 8.50659 0 19C0 29.4934 8.50659 38 19 38ZM24.6999 14.9148L15.8649 22.8948L15.9599 27.3598C15.9599 27.6448 16.3399 27.6448 16.6249 27.3598L18.9049 25.1748L23.6549 28.6898C24.5099 29.1648 25.1749 28.8798 25.3649 27.8348L28.4999 13.1098C28.7849 11.7798 28.0249 11.2098 27.1699 11.5898L8.83491 18.6198C7.59991 19.0948 7.59991 19.8548 8.64491 20.1398L13.2999 21.5648L24.1299 14.7248C24.6049 14.4398 25.0799 14.5348 24.6999 14.9148Z" fill="white"></path></svg>