<svg xmlns="http://www.w3.org/2000/svg" width="38" height="38" viewBox="0 0 38 38" fill="none"><g clip-path="url(#clip0_16_356)"><path d="M38 19C38 8.50659 29.4934 0 19 0C8.50659 0 0 8.50659 0 19C0 29.4934 8.50659 38 19 38C29.4934 38 38 29.4934 38 19Z" fill="white"></path><path d="M28.3049 9.64605C27.6764 9.06829 25.132 7.21826 19.4604 7.19292C19.4604 7.19292 12.775 6.78744 9.51592 9.77787C7.70138 11.5924 7.06275 14.2433 6.99686 17.5378C6.93097 20.8272 6.8448 26.9957 12.7902 28.6682H12.7952L12.7902 31.2177C12.7902 31.2177 12.7547 32.2517 13.4339 32.4595C14.255 32.7129 14.7416 31.9273 15.5272 31.0808C15.958 30.6145 16.551 29.9354 17.0021 29.4133C21.0671 29.7529 24.1944 28.9724 24.5491 28.8558C25.3702 28.5872 30.0181 27.9941 30.7733 21.8258C31.5539 15.4799 30.3931 11.4606 28.3049 9.64605ZM28.9942 21.3797C28.3556 26.5293 24.5897 26.8537 23.8953 27.0767C23.6013 27.173 20.5568 27.8573 17.1001 27.6292C17.1001 27.6292 15.0508 30.5439 14.2501 31.3498C14.1233 31.4765 13.9763 31.5272 13.88 31.5018C13.7432 31.4664 13.7077 31.0659 13.7077 31.0659L13.7751 27.0748C13.77 27.0748 13.77 27.0748 13.7751 27.0748C8.74204 25.6809 8.76067 20.3711 8.81649 17.6239C8.87222 14.8768 9.38918 12.6213 10.9249 11.1058C13.6772 8.61214 19.359 8.98208 19.359 8.98208C24.1538 9.00235 26.4498 10.4469 26.9821 10.9284C28.751 12.4489 29.6532 16.073 28.9942 21.3797Z" fill="black"></path><path d="M21.797 17.7203C21.6297 17.7203 21.4877 17.5885 21.4776 17.4161C21.4219 16.3264 20.91 15.7942 19.8658 15.7385C19.6884 15.7284 19.5516 15.5763 19.5617 15.3989C19.5718 15.2215 19.7239 15.0847 19.9013 15.0948C21.2799 15.1708 22.0504 15.9615 22.1213 17.3807C22.1314 17.5581 21.9946 17.7101 21.8172 17.7152C21.8071 17.7203 21.802 17.7203 21.797 17.7203Z" fill="black"></path><path d="M23.4391 18.2677H23.434C23.2566 18.2626 23.1147 18.1157 23.1198 17.9383C23.1451 16.8435 22.8309 15.9565 22.1618 15.2266C21.4978 14.4968 20.5805 14.1014 19.3691 14.0153C19.1916 14.0001 19.0599 13.848 19.0751 13.6706C19.0903 13.4932 19.2424 13.3614 19.4198 13.3766C20.7883 13.478 21.8679 13.9544 22.6382 14.7958C23.4138 15.6422 23.7888 16.7015 23.7635 17.9535C23.7584 18.1309 23.6114 18.2677 23.4391 18.2677Z" fill="black"></path><path d="M25.1219 18.9266C24.9445 18.9266 24.8025 18.7847 24.8025 18.6073C24.7873 16.6457 24.2247 15.1505 23.0792 14.0304C21.949 12.9255 20.5145 12.3628 18.8268 12.3476C18.6494 12.3476 18.5074 12.2007 18.5074 12.0233C18.5074 11.8459 18.6544 11.7039 18.8268 11.7039C20.6869 11.7191 22.2682 12.3426 23.5202 13.5692C24.7772 14.7958 25.4209 16.4886 25.4412 18.5971C25.4462 18.7796 25.3043 18.9266 25.1219 18.9266C25.1269 18.9266 25.1269 18.9266 25.1219 18.9266ZM19.9418 21.6888C19.9418 21.6888 20.3929 21.7294 20.6362 21.4303L21.1076 20.8374C21.3357 20.5434 21.8882 20.3558 22.4254 20.6549C22.7245 20.8221 23.2668 21.1567 23.6013 21.405C23.9611 21.6685 24.6911 22.2768 24.6961 22.2819C25.0458 22.5759 25.1269 23.0067 24.8887 23.4679C24.8887 23.4679 24.8887 23.473 24.8887 23.4781C24.6454 23.9089 24.316 24.3144 23.9054 24.6894C23.9003 24.6894 23.9003 24.6945 23.8953 24.6945C23.5556 24.9783 23.2212 25.1405 22.8967 25.176C22.8562 25.1862 22.8106 25.1862 22.7498 25.1862C22.6079 25.1862 22.4659 25.1659 22.3241 25.1202L22.3139 25.105C21.807 24.9631 20.9656 24.6083 19.5668 23.8328C18.6544 23.331 17.8992 22.8192 17.2555 22.3072C16.9159 22.0386 16.5712 21.7396 16.2165 21.3847C16.2063 21.3746 16.1911 21.3594 16.181 21.3493C16.1708 21.3391 16.1556 21.3239 16.1455 21.3138C16.1354 21.3037 16.1202 21.2885 16.11 21.2783C16.0999 21.2682 16.0847 21.2529 16.0746 21.2428C15.7248 20.888 15.4207 20.5434 15.1521 20.2038C14.6401 19.5652 14.1282 18.8049 13.6265 17.8925C12.851 16.4885 12.4961 15.6472 12.3543 15.1454L12.3391 15.1352C12.2934 14.9934 12.2731 14.8514 12.2731 14.7095C12.2731 14.6487 12.2731 14.6031 12.2833 14.5625C12.3239 14.2331 12.486 13.9036 12.7648 13.564C12.7648 13.559 12.7699 13.559 12.7699 13.5539C13.1449 13.1383 13.5504 12.8138 13.9812 12.5706C13.9812 12.5706 13.9863 12.5706 13.9914 12.5706C14.4475 12.3323 14.8783 12.4135 15.1774 12.7632C15.1774 12.7632 15.7907 13.4982 16.0543 13.858C16.3026 14.1976 16.6371 14.7348 16.8044 15.0339C17.1035 15.5711 16.9159 16.1236 16.6219 16.3517L16.029 16.8231C15.7299 17.0664 15.7704 17.5174 15.7704 17.5174C15.7704 17.5174 16.6473 20.8526 19.9418 21.6888Z" fill="black"></path></g><defs><clipPath id="clip0_16_356"><rect width="38" height="38" fill="white"></rect></clipPath></defs></svg>